Oxygen-ExtraBold.ufo
<glyph name="dollar" format="1">
  <advance width="1164"/>
  <unicode hex="0024"/>
  <outline>
    <contour>
      <point x="536" y="1574" type="line"/>
      <point x="660" y="1574" type="line"/>
      <point x="660" y="1422" type="line"/>
      <point x="822" y="1415"/>
      <point x="959" y="1386"/>
      <point x="1077" y="1320" type="curve"/>
      <point x="984" y="1086" type="line"/>
      <point x="884" y="1136"/>
      <point x="781" y="1159"/>
      <point x="660" y="1167" type="curve"/>
      <point x="660" y="867" type="line"/>
      <point x="685" y="857"/>
      <point x="686" y="854"/>
      <point x="710" y="844" type="curve" smooth="yes"/>
      <point x="961" y="739"/>
      <point x="1123" y="664"/>
      <point x="1123" y="437" type="curve" smooth="yes"/>
      <point x="1123" y="207"/>
      <point x="938" y="73"/>
      <point x="660" y="46" type="curve"/>
      <point x="660" y="-150" type="line"/>
      <point x="536" y="-150" type="line"/>
      <point x="536" y="43" type="line"/>
      <point x="357" y="45"/>
      <point x="208" y="73"/>
      <point x="73" y="144" type="curve"/>
      <point x="111" y="405" type="line"/>
      <point x="211" y="347"/>
      <point x="401" y="295"/>
      <point x="536" y="290" type="curve"/>
      <point x="536" y="604" type="line"/>
      <point x="453" y="637" type="line"/>
      <point x="222" y="724"/>
      <point x="79" y="829"/>
      <point x="79" y="1047" type="curve" smooth="yes"/>
      <point x="79" y="1267"/>
      <point x="271" y="1400"/>
      <point x="536" y="1420" type="curve"/>
    </contour>
    <contour>
      <point x="536" y="918" type="curve"/>
      <point x="536" y="1165" type="line"/>
      <point x="456" y="1154"/>
      <point x="406" y="1123"/>
      <point x="406" y="1061" type="curve" smooth="yes"/>
      <point x="406" y="987"/>
      <point x="448" y="960"/>
      <point x="513" y="929" type="curve" smooth="yes"/>
      <point x="526" y="924"/>
      <point x="522" y="923"/>
    </contour>
    <contour>
      <point x="660" y="556" type="curve"/>
      <point x="660" y="297" type="line"/>
      <point x="746" y="315"/>
      <point x="797" y="350"/>
      <point x="797" y="408" type="curve" smooth="yes"/>
      <point x="797" y="477"/>
      <point x="745" y="509"/>
      <point x="687" y="543" type="curve" smooth="yes"/>
      <point x="675" y="548"/>
      <point x="674" y="551"/>
    </contour>
  </outline>
</glyph>
<glyph name="parenright" format="1">
  <advance width="675"/>
  <unicode hex="0029"/>
  <outline>
    <contour>
      <point x="590" y="597" type="curve" smooth="yes"/>
      <point x="590" y="231"/>
      <point x="470" y="-50"/>
      <point x="302" y="-278" type="curve"/>
      <point x="17" y="-278" type="line"/>
      <point x="91" y="-183"/>
      <point x="292" y="212"/>
      <point x="292" y="597" type="curve" smooth="yes"/>
      <point x="292" y="979"/>
      <point x="93" y="1390"/>
      <point x="16" y="1490" type="curve"/>
      <point x="302" y="1490" type="line"/>
      <point x="469" y="1260"/>
      <point x="590" y="961"/>
    </contour>
  </outline>
</glyph>
<glyph name="plus" format="1">
  <advance width="1214"/>
  <unicode hex="002B"/>
  <outline>
    <contour>
      <point x="726" y="762" type="line"/>
      <point x="1143" y="762" type="line"/>
      <point x="1143" y="537" type="line"/>
      <point x="725" y="537" type="line"/>
      <point x="725" y="142" type="line"/>
      <point x="488" y="142" type="line"/>
      <point x="488" y="537" type="line"/>
      <point x="73" y="537" type="line"/>
      <point x="73" y="762" type="line"/>
      <point x="489" y="762" type="line"/>
      <point x="489" y="1159" type="line"/>
      <point x="726" y="1159" type="line"/>
    </contour>
  </outline>
</glyph>
<glyph name="comma" format="1">
  <advance width="510"/>
  <unicode hex="002C"/>
  <outline>
    <contour>
      <point x="36" y="-287" type="curve"/>
      <point x="258" y="-287" type="line"/>
      <point x="328" y="-114"/>
      <point x="380" y="36"/>
      <point x="424" y="179" type="curve"/>
      <point x="430" y="230" type="line"/>
      <point x="156" y="230" type="line"/>
      <point x="120" y="58"/>
      <point x="82" y="-103"/>
    </contour>
  </outline>
</glyph>
<glyph name="hyphen" format="1">
  <advance width="679"/>
  <unicode hex="002D"/>
  <outline>
    <contour>
      <point x="60" y="413" type="line"/>
      <point x="60" y="651" type="line"/>
      <point x="619" y="651" type="line"/>
      <point x="619" y="413" type="line"/>
    </contour>
  </outline>
</glyph>
<glyph name="zero" format="1">
  <advance width="1330"/>
  <unicode hex="0030"/>
  <outline>
    <contour>
      <point x="670" y="-19" type="curve" smooth="yes"/>
      <point x="232" y="-19"/>
      <point x="96" y="350"/>
      <point x="96" y="720" type="curve" smooth="yes"/>
      <point x="96" y="1090"/>
      <point x="231" y="1468"/>
      <point x="670" y="1468" type="curve" smooth="yes"/>
      <point x="1108" y="1468"/>
      <point x="1243" y="1087"/>
      <point x="1243" y="720" type="curve" smooth="yes"/>
      <point x="1243" y="350"/>
      <point x="1107" y="-19"/>
    </contour>
    <contour>
      <point x="670" y="1225" type="curve" smooth="yes"/>
      <point x="440" y="1225"/>
      <point x="418" y="957"/>
      <point x="416" y="735" type="curve"/>
      <point x="416" y="506"/>
      <point x="438" y="223"/>
      <point x="671" y="223" type="curve" smooth="yes"/>
      <point x="902" y="223"/>
      <point x="922" y="503"/>
      <point x="922" y="729" type="curve" smooth="yes"/>
      <point x="922" y="955"/>
      <point x="901" y="1225"/>
    </contour>
  </outline>
</glyph>
<glyph name="five" format="1">
  <advance width="1113"/>
  <unicode hex="0035"/>
  <outline>
    <contour>
      <point x="999" y="1434" type="line"/>
      <point x="984" y="1201" type="line"/>
      <point x="473" y="1201" type="line"/>
      <point x="474" y="1233"/>
      <point x="460" y="876"/>
      <point x="461" y="909" type="curve"/>
      <point x="511" y="929"/>
      <point x="562" y="939"/>
      <point x="607" y="939" type="curve" smooth="yes"/>
      <point x="856" y="939"/>
      <point x="1052" y="754"/>
      <point x="1052" y="462" type="curve" smooth="yes"/>
      <point x="1052" y="178"/>
      <point x="882" y="-19"/>
      <point x="554" y="-19" type="curve" smooth="yes"/>
      <point x="308" y="-19"/>
      <point x="74" y="141"/>
      <point x="94" y="123" type="curve"/>
      <point x="184" y="339" type="line"/>
      <point x="169" y="350"/>
      <point x="336" y="221"/>
      <point x="506" y="221" type="curve" smooth="yes"/>
      <point x="683" y="221"/>
      <point x="746" y="330"/>
      <point x="746" y="468" type="curve" smooth="yes"/>
      <point x="746" y="620"/>
      <point x="653" y="708"/>
      <point x="557" y="708" type="curve" smooth="yes"/>
      <point x="492" y="708"/>
      <point x="415" y="671"/>
      <point x="344" y="594" type="curve"/>
      <point x="148" y="637" type="line"/>
      <point x="184" y="1434" type="line"/>
    </contour>
  </outline>
</glyph>
<glyph name="eight" format="1">
  <advance width="1131"/>
  <unicode hex="0038"/>
  <outline>
    <contour>
      <point x="568" y="-19" type="curve" smooth="yes"/>
      <point x="279" y="-19"/>
      <point x="39" y="121"/>
      <point x="39" y="391" type="curve" smooth="yes"/>
      <point x="39" y="579"/>
      <point x="140" y="682"/>
      <point x="265" y="754" type="curve"/>
      <point x="153" y="821"/>
      <point x="66" y="917"/>
      <point x="66" y="1087" type="curve" smooth="yes"/>
      <point x="66" y="1346"/>
      <point x="296" y="1468"/>
      <point x="567" y="1468" type="curve" smooth="yes"/>
      <point x="841" y="1468"/>
      <point x="1071" y="1345"/>
      <point x="1071" y="1087" type="curve" smooth="yes"/>
      <point x="1071" y="921"/>
      <point x="990" y="822"/>
      <point x="885" y="754" type="curve"/>
      <point x="1010" y="679"/>
      <point x="1096" y="573"/>
      <point x="1096" y="390" type="curve" smooth="yes"/>
      <point x="1096" y="119"/>
      <point x="855" y="-19"/>
    </contour>
    <contour>
      <point x="568" y="664" type="curve"/>
      <point x="428" y="627"/>
      <point x="327" y="539"/>
      <point x="327" y="390" type="curve" smooth="yes"/>
      <point x="327" y="254"/>
      <point x="410" y="182"/>
      <point x="568" y="182" type="curve" smooth="yes"/>
      <point x="729" y="182"/>
      <point x="809" y="256"/>
      <point x="809" y="392" type="curve" smooth="yes"/>
      <point x="809" y="541"/>
      <point x="698" y="628"/>
    </contour>
    <contour>
      <point x="568" y="1270" type="curve" smooth="yes"/>
      <point x="426" y="1270"/>
      <point x="328" y="1192"/>
      <point x="328" y="1084" type="curve" smooth="yes"/>
      <point x="328" y="942"/>
      <point x="429" y="855"/>
      <point x="568" y="824" type="curve"/>
      <point x="713" y="857"/>
      <point x="807" y="944"/>
      <point x="807" y="1084" type="curve" smooth="yes"/>
      <point x="807" y="1192"/>
      <point x="710" y="1270"/>
    </contour>
  </outline>
</glyph>
<glyph name="nine" format="1">
  <advance width="1247"/>
  <unicode hex="0039"/>
  <outline>
    <contour>
      <point x="576" y="527" type="curve" smooth="yes"/>
      <point x="269" y="527"/>
      <point x="62" y="712"/>
      <point x="62" y="987" type="curve" smooth="yes"/>
      <point x="62" y="1288"/>
      <point x="314" y="1468"/>
      <point x="631" y="1468" type="curve" smooth="yes"/>
      <point x="957" y="1468"/>
      <point x="1212" y="1295"/>
      <point x="1212" y="988" type="curve" smooth="yes"/>
      <point x="1212" y="807"/>
      <point x="1108" y="670"/>
      <point x="1042" y="579" type="curve"/>
      <point x="1063" y="607"/>
      <point x="619" y="0"/>
      <point x="619" y="0" type="curve"/>
      <point x="227" y="0" type="line"/>
      <point x="628" y="527" type="line"/>
      <point x="601" y="526"/>
      <point x="602" y="527"/>
    </contour>
    <contour>
      <point x="892" y="1000" type="curve" smooth="yes"/>
      <point x="892" y="1152"/>
      <point x="804" y="1239"/>
      <point x="648" y="1239" type="curve" smooth="yes"/>
      <point x="485" y="1239"/>
      <point x="389" y="1149"/>
      <point x="389" y="995" type="curve" smooth="yes"/>
      <point x="389" y="838"/>
      <point x="463" y="733"/>
      <point x="645" y="733" type="curve" smooth="yes"/>
      <point x="823" y="733"/>
      <point x="892" y="841"/>
    </contour>
  </outline>
</glyph>
<glyph name="semicolon" format="1">
  <advance width="404"/>
  <unicode hex="003B"/>
  <outline>
    <contour>
      <point x="93" y="807" type="line"/>
      <point x="93" y="1093" type="line"/>
      <point x="395" y="1093" type="line"/>
      <point x="395" y="807" type="line"/>
    </contour>
    <contour>
      <point x="397" y="276" type="line"/>
      <point x="273" y="-330" type="line"/>
      <point x="88" y="-330" type="line"/>
      <point x="143" y="276" type="line"/>
    </contour>
  </outline>
</glyph>
<glyph name="greater" format="1">
  <advance width="1209"/>
  <unicode hex="003E"/>
  <outline>
    <contour>
      <point x="121" y="460" type="line"/>
      <point x="781" y="746" type="line"/>
      <point x="121" y="1049" type="line"/>
      <point x="121" y="1286" type="line"/>
      <point x="1093" y="811" type="line"/>
      <point x="1093" y="670" type="line"/>
      <point x="121" y="225" type="line"/>
    </contour>
  </outline>
</glyph>
<glyph name="at" format="1">
  <advance width="1627"/>
  <unicode hex="0040"/>
  <outline>
    <contour>
      <point x="1588" y="650" type="curve" smooth="yes"/>
      <point x="1588" y="333"/>
      <point x="1372" y="92"/>
      <point x="1132" y="92" type="curve" smooth="yes"/>
      <point x="1029" y="92"/>
      <point x="951" y="150"/>
      <point x="956" y="340" type="curve"/>
      <point x="905" y="191"/>
      <point x="803" y="110"/>
      <point x="703" y="110" type="curve" smooth="yes"/>
      <point x="499" y="110"/>
      <point x="390" y="269"/>
      <point x="390" y="451" type="curve" smooth="yes"/>
      <point x="390" y="742"/>
      <point x="627" y="990"/>
      <point x="907" y="990" type="curve" smooth="yes"/>
      <point x="1039" y="990"/>
      <point x="1138" y="953"/>
      <point x="1231" y="919" type="curve"/>
      <point x="1198" y="765"/>
      <point x="1149" y="609"/>
      <point x="1114" y="441" type="curve" smooth="yes"/>
      <point x="1081" y="256"/>
      <point x="1096" y="247"/>
      <point x="1157" y="247" type="curve" smooth="yes"/>
      <point x="1310" y="247"/>
      <point x="1417" y="481"/>
      <point x="1417" y="650" type="curve" smooth="yes"/>
      <point x="1417" y="969"/>
      <point x="1181" y="1183"/>
      <point x="860" y="1183" type="curve" smooth="yes"/>
      <point x="352" y="1183"/>
      <point x="224" y="710"/>
      <point x="224" y="533" type="curve" smooth="yes"/>
      <point x="224" y="114"/>
      <point x="550" y="-98"/>
      <point x="891" y="-98" type="curve" smooth="yes"/>
      <point x="1070" y="-98"/>
      <point x="1262" y="-53"/>
      <point x="1427" y="82" type="curve"/>
      <point x="1495" y="-24" type="line"/>
      <point x="1350" y="-154"/>
      <point x="1165" y="-252"/>
      <point x="895" y="-252" type="curve" smooth="yes"/>
      <point x="395" y="-252"/>
      <point x="40" y="71"/>
      <point x="40" y="555" type="curve" smooth="yes"/>
      <point x="40" y="1009"/>
      <point x="394" y="1342"/>
      <point x="856" y="1342" type="curve" smooth="yes"/>
      <point x="1270" y="1342"/>
      <point x="1588" y="1055"/>
    </contour>
    <contour>
      <point x="602" y="442" type="curve" smooth="yes"/>
      <point x="602" y="356"/>
      <point x="624" y="259"/>
      <point x="696" y="259" type="curve" smooth="yes"/>
      <point x="840" y="259"/>
      <point x="928" y="488"/>
      <point x="982" y="685" type="curve" smooth="yes"/>
      <point x="1000" y="750"/>
      <point x="1014" y="812"/>
      <point x="1024" y="861" type="curve"/>
      <point x="989" y="865"/>
      <point x="966" y="867"/>
      <point x="931" y="867" type="curve" smooth="yes"/>
      <point x="765" y="867"/>
      <point x="602" y="627"/>
    </contour>
  </outline>
</glyph>
<glyph name="H" format="1">
  <advance width="1539"/>
  <unicode hex="0048"/>
  <outline>
    <contour>
      <point x="770" y="1436" type="move" name="top"/>
    </contour>
    <contour>
      <point x="770" y="718" type="move" name="center"/>
    </contour>
    <contour>
      <point x="1395" y="0" type="line"/>
      <point x="1395" y="1456" type="line"/>
      <point x="1062" y="1456" type="line"/>
      <point x="1062" y="879" type="line"/>
      <point x="483" y="879" type="line"/>
      <point x="483" y="1456" type="line"/>
      <point x="150" y="1456" type="line"/>
      <point x="150" y="0" type="line"/>
      <point x="483" y="0" type="line"/>
      <point x="483" y="627" type="line"/>
      <point x="1062" y="627" type="line"/>
      <point x="1062" y="0" type="line"/>
    </contour>
  </outline>
</glyph>
<glyph name="I" format="1">
  <advance width="640"/>
  <unicode hex="0049"/>
  <outline>
    <contour>
      <point x="320" y="1436" type="move" name="top"/>
    </contour>
    <contour>
      <point x="576" y="10" type="move" name="ogonek"/>
    </contour>
    <contour>
      <point x="154" y="0" type="line"/>
      <point x="154" y="1456" type="line"/>
      <point x="487" y="1456" type="line"/>
      <point x="487" y="0" type="line"/>
    </contour>
  </outline>
</glyph>
<glyph name="J" format="1">
  <advance width="686"/>
  <unicode hex="004A"/>
  <outline>
    <contour>
      <point x="343" y="1436" type="move" name="top"/>
    </contour>
    <contour>
      <point x="199" y="95" type="curve" smooth="yes"/>
      <point x="199" y="1452" type="line"/>
      <point x="531" y="1452" type="line"/>
      <point x="531" y="88" type="line" smooth="yes"/>
      <point x="531" y="-249"/>
      <point x="374" y="-401"/>
      <point x="26" y="-401" type="curve" smooth="yes"/>
      <point x="-27" y="-401"/>
      <point x="-65" y="-396"/>
      <point x="-107" y="-388" type="curve"/>
      <point x="-112" y="-131" type="line"/>
      <point x="-63" y="-138"/>
      <point x="-32" y="-143"/>
      <point x="12" y="-143" type="curve" smooth="yes"/>
      <point x="151" y="-143"/>
      <point x="199" y="-78"/>
    </contour>
  </outline>
</glyph>
<glyph name="K" format="1">
  <advance width="1372"/>
  <unicode hex="004B"/>
  <outline>
    <contour>
      <point x="686" y="1436" type="move" name="top"/>
    </contour>
    <contour>
      <point x="686" y="0" type="move" name="bottom"/>
    </contour>
    <contour>
      <point x="1388" y="0" type="line"/>
      <point x="1003" y="0" type="line"/>
      <point x="581" y="625" type="line"/>
      <point x="483" y="548" type="line"/>
      <point x="483" y="0" type="line"/>
      <point x="150" y="0" type="line"/>
      <point x="150" y="1456" type="line"/>
      <point x="483" y="1456" type="line"/>
      <point x="483" y="837" type="line"/>
      <point x="686" y="1105"/>
      <point x="762" y="1197"/>
      <point x="974" y="1456" type="curve"/>
      <point x="1359" y="1456" type="line"/>
      <point x="835" y="802" type="line"/>
    </contour>
  </outline>
</glyph>
<glyph name="L" format="1">
  <advance width="1105"/>
  <unicode hex="004C"/>
  <outline>
    <contour>
      <point x="553" y="1436" type="move" name="top"/>
    </contour>
    <contour>
      <point x="553" y="0" type="move" name="bottom"/>
    </contour>
    <contour>
      <point x="150" y="0" type="line"/>
      <point x="150" y="1456" type="line"/>
      <point x="482" y="1456" type="line"/>
      <point x="482" y="255" type="line"/>
      <point x="1071" y="255" type="line"/>
      <point x="1063" y="0" type="line"/>
    </contour>
  </outline>
</glyph>
<glyph name="M" format="1">
  <advance width="1856"/>
  <unicode hex="004D"/>
  <outline>
    <contour>
      <point x="784" y="106" type="line"/>
      <point x="472" y="962" type="line"/>
      <point x="435" y="1017" type="line"/>
      <point x="445" y="616" type="line"/>
      <point x="445" y="0" type="line"/>
      <point x="149" y="0" type="line"/>
      <point x="149" y="1456" type="line"/>
      <point x="530" y="1456" type="line"/>
      <point x="927" y="473" type="line"/>
      <point x="1334" y="1456" type="line"/>
      <point x="1712" y="1456" type="line"/>
      <point x="1712" y="0" type="line"/>
      <point x="1409" y="0" type="line"/>
      <point x="1409" y="619" type="line"/>
      <point x="1417" y="1012" type="line"/>
      <point x="1380" y="957" type="line"/>
      <point x="1056" y="106" type="line"/>
    </contour>
  </outline>
</glyph>
<glyph name="O" format="1">
  <advance width="1626"/>
  <unicode hex="004F"/>
  <outline>
    <contour>
      <point x="813" y="1436" type="move" name="top"/>
    </contour>
    <contour>
      <point x="435" y="724" type="curve" smooth="yes"/>
      <point x="435" y="420"/>
      <point x="563" y="244"/>
      <point x="815" y="244" type="curve" smooth="yes"/>
      <point x="1067" y="244"/>
      <point x="1197" y="419"/>
      <point x="1197" y="724" type="curve" smooth="yes"/>
      <point x="1197" y="1027"/>
      <point x="1070" y="1214"/>
      <point x="816" y="1214" type="curve" smooth="yes"/>
      <point x="561" y="1214"/>
      <point x="435" y="1025"/>
    </contour>
    <contour>
      <point x="1536" y="728" type="curve" smooth="yes"/>
      <point x="1536" y="245"/>
      <point x="1246" y="-20"/>
      <point x="814" y="-20" type="curve" smooth="yes"/>
      <point x="384" y="-20"/>
      <point x="92" y="247"/>
      <point x="92" y="729" type="curve" smooth="yes"/>
      <point x="92" y="1213"/>
      <point x="383" y="1474"/>
      <point x="815" y="1474" type="curve" smooth="yes"/>
      <point x="1250" y="1474"/>
      <point x="1536" y="1210"/>
    </contour>
  </outline>
</glyph>
<glyph name="Q" format="1">
  <advance width="1627"/>
  <unicode hex="0051"/>
  <outline>
    <contour>
      <point x="1291" y="-470" type="curve"/>
      <point x="1452" y="-312" type="line"/>
      <point x="1284" y="-162"/>
      <point x="1208" y="-87"/>
      <point x="1129" y="39" type="curve"/>
      <point x="1385" y="142"/>
      <point x="1562" y="378"/>
      <point x="1562" y="724" type="curve" smooth="yes"/>
      <point x="1562" y="1201"/>
      <point x="1232" y="1474"/>
      <point x="813" y="1474" type="curve" smooth="yes"/>
      <point x="396" y="1474"/>
      <point x="66" y="1200"/>
      <point x="66" y="724" type="curve" smooth="yes"/>
      <point x="66" y="250"/>
      <point x="398" y="-20"/>
      <point x="813" y="-20" type="curve" smooth="yes"/>
      <point x="842" y="-20"/>
      <point x="870" y="-18"/>
      <point x="898" y="-16" type="curve"/>
      <point x="979" y="-158"/>
      <point x="1125" y="-356"/>
    </contour>
    <contour>
      <point x="815" y="223" type="curve" smooth="yes"/>
      <point x="536" y="223"/>
      <point x="394" y="426"/>
      <point x="394" y="718" type="curve" smooth="yes"/>
      <point x="394" y="1006"/>
      <point x="532" y="1230"/>
      <point x="815" y="1230" type="curve" smooth="yes"/>
      <point x="1100" y="1230"/>
      <point x="1240" y="1006"/>
      <point x="1240" y="718" type="curve" smooth="yes"/>
      <point x="1240" y="426"/>
      <point x="1096" y="223"/>
    </contour>
  </outline>
</glyph>
<glyph name="R" format="1">
  <advance width="1319"/>
  <unicode hex="0052"/>
  <outline>
    <contour>
      <point x="660" y="1436" type="move" name="top"/>
    </contour>
    <contour>
      <point x="660" y="0" type="move" name="bottom"/>
    </contour>
    <contour>
      <point x="1353" y="0" type="line"/>
      <point x="1012" y="0" type="line"/>
      <point x="858" y="332" type="line"/>
      <point x="822" y="408"/>
      <point x="717" y="599"/>
      <point x="724" y="588" type="curve"/>
      <point x="715" y="590"/>
      <point x="694" y="592"/>
      <point x="649" y="592" type="curve" smooth="yes"/>
      <point x="653" y="592"/>
      <point x="446" y="591"/>
      <point x="446" y="591" type="curve"/>
      <point x="446" y="0" type="line"/>
      <point x="120" y="0" type="line"/>
      <point x="120" y="1452" type="line"/>
      <point x="707" y="1452" type="line" smooth="yes"/>
      <point x="1047" y="1452"/>
      <point x="1262" y="1371"/>
      <point x="1262" y="1035" type="curve" smooth="yes"/>
      <point x="1262" y="830"/>
      <point x="1170" y="712"/>
      <point x="1008" y="648" type="curve"/>
      <point x="1085" y="563"/>
      <point x="1107" y="504"/>
      <point x="1156" y="408" type="curve"/>
    </contour>
    <contour>
      <point x="446" y="1221" type="line"/>
      <point x="446" y="815" type="line"/>
      <point x="419" y="816"/>
      <point x="728" y="816"/>
      <point x="701" y="816" type="curve" smooth="yes"/>
      <point x="876" y="816"/>
      <point x="962" y="876"/>
      <point x="962" y="1030" type="curve" smooth="yes"/>
      <point x="962" y="1166"/>
      <point x="865" y="1221"/>
      <point x="703" y="1221" type="curve" smooth="yes"/>
    </contour>
  </outline>
</glyph>
<glyph name="T" format="1">
  <advance width="1163"/>
  <unicode hex="0054"/>
  <outline>
    <contour>
      <point x="582" y="1436" type="move" name="top"/>
    </contour>
    <contour>
      <point x="582" y="718" type="move" name="center"/>
    </contour>
    <contour>
      <point x="582" y="0" type="move" name="bottom"/>
    </contour>
    <contour>
      <point x="747" y="0" type="line"/>
      <point x="414" y="0" type="line"/>
      <point x="414" y="1199" type="line"/>
      <point x="6" y="1199" type="line"/>
      <point x="6" y="1456" type="line"/>
      <point x="1156" y="1456" type="line"/>
      <point x="1156" y="1199" type="line"/>
      <point x="747" y="1199" type="line"/>
    </contour>
  </outline>
</glyph>
<glyph name="U" format="1">
  <advance width="1487"/>
  <unicode hex="0055"/>
  <outline>
    <contour>
      <point x="743" y="1436" type="move" name="top"/>
    </contour>
    <contour>
      <point x="1338" y="10" type="move" name="ogonek"/>
    </contour>
    <contour>
      <point x="1354" y="1456" type="line"/>
      <point x="1354" y="529" type="line" smooth="yes"/>
      <point x="1354" y="181"/>
      <point x="1132" y="-20"/>
      <point x="744" y="-20" type="curve" smooth="yes"/>
      <point x="354" y="-20"/>
      <point x="139" y="180"/>
      <point x="139" y="531" type="curve" smooth="yes"/>
      <point x="139" y="1456" type="line"/>
      <point x="472" y="1456" type="line"/>
      <point x="472" y="569" type="line" smooth="yes"/>
      <point x="472" y="345"/>
      <point x="540" y="244"/>
      <point x="747" y="244" type="curve" smooth="yes"/>
      <point x="951" y="244"/>
      <point x="1021" y="345"/>
      <point x="1021" y="570" type="curve" smooth="yes"/>
      <point x="1021" y="1456" type="line"/>
    </contour>
  </outline>
</glyph>
<glyph name="W" format="1">
  <advance width="2075"/>
  <unicode hex="0057"/>
  <outline>
    <contour>
      <point x="1038" y="1436" type="move" name="top"/>
    </contour>
    <contour>
      <point x="1664" y="0" type="line"/>
      <point x="1312" y="0" type="line"/>
      <point x="1034" y="1051" type="line"/>
      <point x="733" y="0" type="line"/>
      <point x="384" y="0" type="line"/>
      <point x="-9" y="1456" type="line"/>
      <point x="318" y="1456" type="line"/>
      <point x="574" y="362" type="line"/>
      <point x="892" y="1462" type="line"/>
      <point x="1183" y="1462" type="line"/>
      <point x="1480" y="357" type="line"/>
      <point x="1757" y="1456" type="line"/>
      <point x="2084" y="1456" type="line"/>
    </contour>
  </outline>
</glyph>
<glyph name="Y" format="1">
  <advance width="1294"/>
  <unicode hex="0059"/>
  <outline>
    <contour>
      <point x="647" y="1436" type="move" name="top"/>
    </contour>
    <contour>
      <point x="650" y="880" type="line"/>
      <point x="961" y="1456" type="line"/>
      <point x="1316" y="1456" type="line"/>
      <point x="820" y="583" type="line"/>
      <point x="820" y="0" type="line"/>
      <point x="488" y="0" type="line"/>
      <point x="488" y="577" type="line"/>
      <point x="-23" y="1456" type="line"/>
      <point x="336" y="1456" type="line"/>
    </contour>
  </outline>
</glyph>
<glyph name="Z" format="1">
  <advance width="1224"/>
  <unicode hex="005A"/>
  <outline>
    <contour>
      <point x="613" y="1436" type="move" name="top"/>
    </contour>
    <contour>
      <point x="47" y="0" type="line"/>
      <point x="1188" y="0" type="line"/>
      <point x="1186" y="255" type="line"/>
      <point x="455" y="255" type="line"/>
      <point x="1182" y="1266" type="line"/>
      <point x="1182" y="1456" type="line"/>
      <point x="72" y="1456" type="line"/>
      <point x="72" y="1200" type="line"/>
      <point x="773" y="1200" type="line"/>
      <point x="47" y="198" type="line"/>
    </contour>
  </outline>
</glyph>
<glyph name="bracketleft" format="1">
  <advance width="634"/>
  <unicode hex="005B"/>
  <outline>
    <contour>
      <point x="601" y="-249" type="line"/>
      <point x="130" y="-249" type="line"/>
      <point x="130" y="1522" type="line"/>
      <point x="601" y="1522" type="line"/>
      <point x="601" y="1312" type="line"/>
      <point x="432" y="1312" type="line"/>
      <point x="432" y="-38" type="line"/>
      <point x="601" y="-38" type="line"/>
    </contour>
  </outline>
</glyph>
<glyph name="backslash" format="1">
  <advance width="941"/>
  <unicode hex="005C"/>
  <outline>
    <contour>
      <point x="294" y="1460" type="line"/>
      <point x="923" y="-60" type="line"/>
      <point x="647" y="-60" type="line"/>
      <point x="17" y="1460" type="line"/>
    </contour>
  </outline>
</glyph>
<glyph name="asciicircum" format="1">
  <advance width="1152"/>
  <unicode hex="005E"/>
  <outline>
    <contour>
      <point x="15" y="523" type="line"/>
      <point x="488" y="1443" type="line"/>
      <point x="634" y="1443" type="line"/>
      <point x="1141" y="523" type="line"/>
      <point x="890" y="523" type="line"/>
      <point x="564" y="1142" type="line"/>
      <point x="264" y="523" type="line"/>
    </contour>
  </outline>
</glyph>
<glyph name="underscore" format="1">
  <advance width="1199"/>
  <unicode hex="005F"/>
  <outline>
    <contour>
      <point x="1132" y="-327" type="line"/>
      <point x="72" y="-327" type="line"/>
      <point x="72" y="-127" type="line"/>
      <point x="1132" y="-127" type="line"/>
    </contour>
  </outline>
</glyph>
<glyph name="b" format="1">
  <advance width="1290"/>
  <unicode hex="0062"/>
  <outline>
    <contour>
      <point x="679" y="895" type="curve" smooth="yes"/>
      <point x="547" y="895"/>
      <point x="450" y="819"/>
      <point x="447" y="583" type="curve"/>
      <point x="447" y="306"/>
      <point x="540" y="217"/>
      <point x="674" y="217" type="curve" smooth="yes"/>
      <point x="781" y="217"/>
      <point x="898" y="309"/>
      <point x="898" y="564" type="curve" smooth="yes"/>
      <point x="898" y="821"/>
      <point x="784" y="895"/>
    </contour>
    <contour>
      <point x="776" y="1130" type="curve" smooth="yes"/>
      <point x="1053" y="1130"/>
      <point x="1216" y="896"/>
      <point x="1216" y="566" type="curve" smooth="yes"/>
      <point x="1216" y="215"/>
      <point x="1033" y="-19"/>
      <point x="767" y="-19" type="curve" smooth="yes"/>
      <point x="597" y="-19"/>
      <point x="469" y="81"/>
      <point x="439" y="134" type="curve"/>
      <point x="408" y="1" type="line"/>
      <point x="127" y="1" type="line"/>
      <point x="127" y="1528" type="line"/>
      <point x="449" y="1537" type="line"/>
      <point x="449" y="1188" type="line" smooth="yes"/>
      <point x="449" y="1132"/>
      <point x="447" y="1057"/>
      <point x="443" y="966" type="curve"/>
      <point x="484" y="1015"/>
      <point x="571" y="1130"/>
    </contour>
  </outline>
</glyph>
<glyph name="c" format="1">
  <advance width="1024"/>
  <unicode hex="0063"/>
  <outline>
    <contour>
      <point x="512" y="1098" type="move" name="top"/>
    </contour>
    <contour>
      <point x="512" y="0" type="move" name="bottom"/>
    </contour>
    <contour>
      <point x="618" y="-19" type="curve" smooth="yes"/>
      <point x="283" y="-19"/>
      <point x="74" y="161"/>
      <point x="74" y="566" type="curve" smooth="yes"/>
      <point x="73" y="957"/>
      <point x="317" y="1130"/>
      <point x="621" y="1130" type="curve" smooth="yes"/>
      <point x="764" y="1130"/>
      <point x="868" y="1101"/>
      <point x="969" y="1042" type="curve"/>
      <point x="897" y="820" type="line"/>
      <point x="827" y="855"/>
      <point x="735" y="895"/>
      <point x="641" y="895" type="curve" smooth="yes"/>
      <point x="491" y="895"/>
      <point x="391" y="798"/>
      <point x="391" y="561" type="curve" smooth="yes"/>
      <point x="391" y="321"/>
      <point x="485" y="217"/>
      <point x="644" y="217" type="curve" smooth="yes"/>
      <point x="757" y="217"/>
      <point x="849" y="253"/>
      <point x="929" y="311" type="curve"/>
      <point x="958" y="71" type="line"/>
      <point x="855" y="7"/>
      <point x="773" y="-19"/>
    </contour>
  </outline>
</glyph>
<glyph name="d" format="1">
  <advance width="1289"/>
  <unicode hex="0064"/>
  <outline>
    <contour>
      <point x="645" y="549" type="move" name="center"/>
    </contour>
    <contour>
      <point x="625" y="214" type="curve" smooth="yes"/>
      <point x="752" y="214"/>
      <point x="852" y="288"/>
      <point x="855" y="541" type="curve"/>
      <point x="855" y="812"/>
      <point x="758" y="894"/>
      <point x="622" y="894" type="curve" smooth="yes"/>
      <point x="507" y="894"/>
      <point x="390" y="819"/>
      <point x="390" y="555" type="curve" smooth="yes"/>
      <point x="390" y="302"/>
      <point x="505" y="214"/>
    </contour>
    <contour>
      <point x="847" y="144" type="line"/>
      <point x="818" y="92"/>
      <point x="778" y="-20"/>
      <point x="533" y="-20" type="curve" smooth="yes"/>
      <point x="244" y="-20"/>
      <point x="74" y="220"/>
      <point x="74" y="563" type="curve" smooth="yes"/>
      <point x="74" y="900"/>
      <point x="239" y="1130"/>
      <point x="534" y="1130" type="curve" smooth="yes"/>
      <point x="776" y="1130"/>
      <point x="831" y="1010"/>
      <point x="853" y="969" type="curve"/>
      <point x="843" y="1065"/>
      <point x="839" y="1134"/>
      <point x="839" y="1217" type="curve" smooth="yes"/>
      <point x="839" y="1528" type="line"/>
      <point x="1163" y="1537" type="line"/>
      <point x="1163" y="0" type="line"/>
      <point x="882" y="0" type="line"/>
    </contour>
  </outline>
</glyph>
<glyph name="e" format="1">
  <advance width="1180"/>
  <unicode hex="0065"/>
  <outline>
    <contour>
      <point x="591" y="1098" type="move" name="top"/>
    </contour>
    <contour>
      <point x="1062" y="10" type="move" name="ogonek"/>
    </contour>
    <contour>
      <point x="591" y="0" type="move" name="bottom"/>
    </contour>
    <contour>
      <point x="616" y="911" type="curve" smooth="yes"/>
      <point x="517" y="911"/>
      <point x="411" y="854"/>
      <point x="400" y="671" type="curve"/>
      <point x="818" y="671" type="line"/>
      <point x="817" y="826"/>
      <point x="743" y="911"/>
    </contour>
    <contour>
      <point x="662" y="-19" type="curve" smooth="yes"/>
      <point x="285" y="-19"/>
      <point x="73" y="197"/>
      <point x="73" y="557" type="curve" smooth="yes"/>
      <point x="73" y="909"/>
      <point x="271" y="1131"/>
      <point x="613" y="1130" type="curve" smooth="yes"/>
      <point x="946" y="1130"/>
      <point x="1113" y="911"/>
      <point x="1113" y="607" type="curve" smooth="yes"/>
      <point x="1113" y="566"/>
      <point x="1112" y="523"/>
      <point x="1112" y="481" type="curve"/>
      <point x="395" y="481" type="line"/>
      <point x="401" y="305"/>
      <point x="501" y="205"/>
      <point x="675" y="205" type="curve" smooth="yes"/>
      <point x="810" y="205"/>
      <point x="921" y="242"/>
      <point x="1019" y="300" type="curve"/>
      <point x="1063" y="83" type="line"/>
      <point x="962" y="20"/>
      <point x="844" y="-19"/>
    </contour>
  </outline>
</glyph>
<glyph name="g" format="1">
  <advance width="1318"/>
  <unicode hex="0067"/>
  <outline>
    <contour>
      <point x="659" y="1098" type="move" name="top"/>
    </contour>
    <contour>
      <point x="378" y="-485" type="line"/>
      <point x="508" y="-485" type="line" smooth="yes"/>
      <point x="1027" y="-485"/>
      <point x="1199" y="-342"/>
      <point x="1199" y="77" type="curve" smooth="yes"/>
      <point x="1199" y="1101" type="line"/>
      <point x="920" y="1101" type="line"/>
      <point x="890" y="973" type="line"/>
      <point x="836" y="1062"/>
      <point x="736" y="1130"/>
      <point x="563" y="1130" type="curve" smooth="yes"/>
      <point x="348" y="1130"/>
      <point x="79" y="968"/>
      <point x="79" y="572" type="curve" smooth="yes"/>
      <point x="79" y="189"/>
      <point x="325" y="0"/>
      <point x="593" y="0" type="curve" smooth="yes"/>
      <point x="769" y="0"/>
      <point x="825" y="65"/>
      <point x="877" y="135" type="curve"/>
      <point x="883" y="72"/>
      <point x="887" y="26"/>
      <point x="887" y="-40" type="curve" smooth="yes"/>
      <point x="887" y="-230"/>
      <point x="727" y="-235"/>
      <point x="452" y="-235" type="curve" smooth="yes"/>
      <point x="363" y="-235" type="line"/>
    </contour>
    <contour>
      <point x="645" y="208" type="curve" smooth="yes"/>
      <point x="495" y="208"/>
      <point x="397" y="351"/>
      <point x="397" y="567" type="curve" smooth="yes"/>
      <point x="397" y="798"/>
      <point x="493" y="892"/>
      <point x="667" y="892" type="curve"/>
      <point x="805" y="890"/>
      <point x="890" y="789"/>
      <point x="890" y="558" type="curve" smooth="yes"/>
      <point x="890" y="552"/>
      <point x="890" y="564"/>
      <point x="890" y="558" type="curve" smooth="yes"/>
      <point x="887" y="343"/>
      <point x="828" y="208"/>
    </contour>
  </outline>
</glyph>
<glyph name="i" format="1">
  <advance width="541"/>
  <unicode hex="0069"/>
  <outline>
    <contour>
      <point x="446" y="1101" type="line"/>
      <point x="446" y="0" type="line"/>
      <point x="124" y="0" type="line"/>
      <point x="124" y="1101" type="line"/>
    </contour>
    <contour>
      <point x="447" y="1474" type="line"/>
      <point x="447" y="1234" type="line"/>
      <point x="124" y="1234" type="line"/>
      <point x="124" y="1474" type="line"/>
    </contour>
  </outline>
</glyph>
<glyph name="k" format="1">
  <advance width="1235"/>
  <unicode hex="006B"/>
  <outline>
    <contour>
      <point x="618" y="0" type="move" name="bottom"/>
    </contour>
    <contour>
      <point x="129" y="0" type="line"/>
      <point x="452" y="0" type="line"/>
      <point x="452" y="398" type="line"/>
      <point x="552" y="473" type="line"/>
      <point x="889" y="0" type="line"/>
      <point x="1275" y="0" type="line"/>
      <point x="798" y="629" type="line"/>
      <point x="1248" y="1101" type="line"/>
      <point x="873" y="1101" type="line"/>
      <point x="746" y="965"/>
      <point x="606" y="831"/>
      <point x="486" y="682" type="curve"/>
      <point x="489" y="685"/>
      <point x="439" y="638"/>
      <point x="442" y="641" type="curve"/>
      <point x="442" y="641"/>
      <point x="452" y="920"/>
      <point x="452" y="916" type="curve"/>
      <point x="452" y="1537" type="line"/>
      <point x="129" y="1527" type="line"/>
    </contour>
  </outline>
</glyph>
<glyph name="l" format="1">
  <advance width="713"/>
  <unicode hex="006C"/>
  <outline>
    <contour>
      <point x="357" y="1098" type="move" name="top"/>
    </contour>
    <contour>
      <point x="693" y="1098" type="move" name="topright"/>
    </contour>
    <contour>
      <point x="357" y="0" type="move" name="bottom"/>
    </contour>
    <contour>
      <point x="426" y="442" type="line"/>
      <point x="426" y="232"/>
      <point x="455" y="215"/>
      <point x="582" y="215" type="curve" smooth="yes"/>
      <point x="612" y="215"/>
      <point x="680" y="227"/>
      <point x="728" y="238" type="curve"/>
      <point x="734" y="17" type="line"/>
      <point x="751" y="19"/>
      <point x="655" y="-11"/>
      <point x="542" y="-11" type="curve" smooth="yes"/>
      <point x="181" y="-11"/>
      <point x="103" y="160"/>
      <point x="103" y="476" type="curve" smooth="yes"/>
      <point x="103" y="1527" type="line"/>
      <point x="426" y="1537" type="line"/>
    </contour>
  </outline>
</glyph>
<glyph name="o" format="1">
  <advance width="1235"/>
  <unicode hex="006F"/>
  <outline>
    <contour>
      <point x="618" y="1098" type="move" name="top"/>
    </contour>
    <contour>
      <point x="391" y="556" type="curve" smooth="yes"/>
      <point x="391" y="328"/>
      <point x="465" y="216"/>
      <point x="616" y="216" type="curve" smooth="yes"/>
      <point x="767" y="216"/>
      <point x="843" y="327"/>
      <point x="843" y="555" type="curve" smooth="yes"/>
      <point x="843" y="786"/>
      <point x="764" y="894"/>
      <point x="616" y="894" type="curve" smooth="yes"/>
      <point x="467" y="894"/>
      <point x="391" y="788"/>
    </contour>
    <contour>
      <point x="1162" y="555" type="curve" smooth="yes"/>
      <point x="1162" y="201"/>
      <point x="965" y="-19"/>
      <point x="611" y="-19" type="curve" smooth="yes"/>
      <point x="270" y="-19"/>
      <point x="74" y="212"/>
      <point x="74" y="555" type="curve" smooth="yes"/>
      <point x="74" y="915"/>
      <point x="266" y="1130"/>
      <point x="622" y="1130" type="curve" smooth="yes"/>
      <point x="961" y="1130"/>
      <point x="1162" y="903"/>
    </contour>
  </outline>
</glyph>
<glyph name="r" format="1">
  <advance width="832"/>
  <unicode hex="0072"/>
  <outline>
    <contour>
      <point x="416" y="1098" type="move" name="top"/>
    </contour>
    <contour>
      <point x="416" y="0" type="move" name="bottom"/>
    </contour>
    <contour>
      <point x="744" y="1120" type="curve" smooth="yes"/>
      <point x="768" y="1120"/>
      <point x="789" y="1120"/>
      <point x="806" y="1117" type="curve"/>
      <point x="803" y="844" type="line"/>
      <point x="777" y="848"/>
      <point x="749" y="849"/>
      <point x="718" y="849" type="curve" smooth="yes"/>
      <point x="513" y="849"/>
      <point x="448" y="751"/>
      <point x="448" y="583" type="curve" smooth="yes"/>
      <point x="448" y="0" type="line"/>
      <point x="126" y="0" type="line"/>
      <point x="126" y="0"/>
      <point x="126" y="1120"/>
      <point x="126" y="1101" type="curve"/>
      <point x="397" y="1101" type="line"/>
      <point x="442" y="950" type="line"/>
      <point x="510" y="1058"/>
      <point x="607" y="1120"/>
    </contour>
  </outline>
</glyph>
<glyph name="s" format="1">
  <advance width="984"/>
  <unicode hex="0073"/>
  <outline>
    <contour>
      <point x="492" y="1098" type="move" name="top"/>
    </contour>
    <contour>
      <point x="492" y="0" type="move" name="bottom"/>
    </contour>
    <contour>
      <point x="479" y="-18" type="curve" smooth="yes"/>
      <point x="771" y="-18"/>
      <point x="925" y="114"/>
      <point x="924" y="342" type="curve" smooth="yes"/>
      <point x="924" y="515"/>
      <point x="813" y="607"/>
      <point x="639" y="677" type="curve" smooth="yes"/>
      <point x="623" y="683"/>
      <point x="608" y="689"/>
      <point x="593" y="695" type="curve" smooth="yes"/>
      <point x="453" y="749"/>
      <point x="385" y="772"/>
      <point x="385" y="836" type="curve" smooth="yes"/>
      <point x="385" y="893"/>
      <point x="438" y="911"/>
      <point x="517" y="911" type="curve" smooth="yes"/>
      <point x="622" y="911"/>
      <point x="738" y="873"/>
      <point x="822" y="832" type="curve"/>
      <point x="896" y="1047" type="line"/>
      <point x="785" y="1104"/>
      <point x="658" y="1130"/>
      <point x="510" y="1130" type="curve" smooth="yes"/>
      <point x="249" y="1130"/>
      <point x="82" y="1038"/>
      <point x="82" y="812" type="curve" smooth="yes"/>
      <point x="82" y="620"/>
      <point x="187" y="546"/>
      <point x="381" y="465" type="curve"/>
      <point x="401" y="457"/>
      <point x="402" y="455"/>
      <point x="421" y="448" type="curve" smooth="yes"/>
      <point x="546" y="394"/>
      <point x="617" y="370"/>
      <point x="617" y="300" type="curve" smooth="yes"/>
      <point x="618" y="234"/>
      <point x="561" y="199"/>
      <point x="472" y="199" type="curve" smooth="yes"/>
      <point x="361" y="199"/>
      <point x="189" y="248"/>
      <point x="103" y="296" type="curve"/>
      <point x="72" y="63" type="line"/>
      <point x="178" y="6"/>
      <point x="307" y="-18"/>
    </contour>
  </outline>
</glyph>
<glyph name="u" format="1">
  <advance width="1146"/>
  <unicode hex="0075"/>
  <outline>
    <contour>
      <point x="573" y="1098" type="move" name="top"/>
    </contour>
    <contour>
      <point x="1032" y="10" type="move" name="ogonek"/>
    </contour>
    <contour>
      <point x="78" y="406" type="curve" smooth="yes"/>
      <point x="78" y="1101" type="line"/>
      <point x="400" y="1101" type="line"/>
      <point x="400" y="406" type="line" smooth="yes"/>
      <point x="400" y="259"/>
      <point x="433" y="184"/>
      <point x="572" y="184" type="curve" smooth="yes"/>
      <point x="710" y="184"/>
      <point x="745" y="258"/>
      <point x="745" y="406" type="curve" smooth="yes"/>
      <point x="745" y="1101" type="line"/>
      <point x="1067" y="1101" type="line"/>
      <point x="1067" y="406" type="line" smooth="yes"/>
      <point x="1067" y="123"/>
      <point x="869" y="-19"/>
      <point x="572" y="-19" type="curve" smooth="yes"/>
      <point x="275" y="-19"/>
      <point x="78" y="119"/>
    </contour>
  </outline>
</glyph>
<glyph name="w" format="1">
  <advance width="1781"/>
  <unicode hex="0077"/>
  <outline>
    <contour>
      <point x="891" y="1098" type="move" name="top"/>
    </contour>
    <contour>
      <point x="1090" y="0" type="line"/>
      <point x="1111" y="-68"/>
      <point x="868" y="887"/>
      <point x="888" y="819" type="curve"/>
      <point x="908" y="889"/>
      <point x="633" y="-68"/>
      <point x="655" y="0" type="curve"/>
      <point x="347" y="0" type="line"/>
      <point x="9" y="1101" type="line"/>
      <point x="335" y="1101" type="line"/>
      <point x="524" y="352" type="line"/>
      <point x="503" y="284"/>
      <point x="755" y="1167"/>
      <point x="733" y="1101" type="curve"/>
      <point x="1052" y="1101" type="line"/>
      <point x="1031" y="1167"/>
      <point x="1255" y="288"/>
      <point x="1235" y="355" type="curve"/>
      <point x="1450" y="1101" type="line"/>
      <point x="1772" y="1101" type="line"/>
      <point x="1402" y="0" type="line"/>
    </contour>
  </outline>
</glyph>
<glyph name="braceleft" format="1">
  <advance width="819"/>
  <unicode hex="007B"/>
  <outline>
    <contour>
      <point x="576" y="90" type="line"/>
      <point x="576" y="-17"/>
      <point x="595" y="-48"/>
      <point x="742" y="-50" type="curve"/>
      <point x="742" y="-291" type="line"/>
      <point x="432" y="-291"/>
      <point x="269" y="-256"/>
      <point x="269" y="-19" type="curve" smooth="yes"/>
      <point x="269" y="303" type="line" smooth="yes"/>
      <point x="269" y="451"/>
      <point x="210" y="473"/>
      <point x="37" y="473" type="curve"/>
      <point x="37" y="730" type="line"/>
      <point x="207" y="730"/>
      <point x="269" y="755"/>
      <point x="269" y="894" type="curve" smooth="yes"/>
      <point x="269" y="1215" type="line" smooth="yes"/>
      <point x="269" y="1456"/>
      <point x="426" y="1494"/>
      <point x="742" y="1494" type="curve"/>
      <point x="742" y="1254" type="line"/>
      <point x="597" y="1252"/>
      <point x="576" y="1222"/>
      <point x="576" y="1114" type="curve" smooth="yes"/>
      <point x="576" y="843" type="line"/>
      <point x="573" y="694"/>
      <point x="507" y="641"/>
      <point x="347" y="599" type="curve"/>
      <point x="489" y="579"/>
      <point x="576" y="522"/>
      <point x="576" y="366" type="curve" smooth="yes"/>
    </contour>
  </outline>
</glyph>
<glyph name="braceright" format="1">
  <advance width="817"/>
  <unicode hex="007D"/>
  <outline>
    <contour>
      <point x="473" y="598" type="curve"/>
      <point x="325" y="644"/>
      <point x="247" y="693"/>
      <point x="244" y="843" type="curve"/>
      <point x="244" y="1114" type="line" smooth="yes"/>
      <point x="244" y="1223"/>
      <point x="226" y="1252"/>
      <point x="79" y="1254" type="curve"/>
      <point x="79" y="1494" type="line"/>
      <point x="389" y="1494"/>
      <point x="551" y="1466"/>
      <point x="551" y="1223" type="curve" smooth="yes"/>
      <point x="551" y="893" type="line" smooth="yes"/>
      <point x="551" y="748"/>
      <point x="605" y="730"/>
      <point x="784" y="730" type="curve"/>
      <point x="784" y="473" type="line"/>
      <point x="612" y="473"/>
      <point x="551" y="458"/>
      <point x="551" y="303" type="curve" smooth="yes"/>
      <point x="551" y="-11" type="line" smooth="yes"/>
      <point x="551" y="-254"/>
      <point x="402" y="-291"/>
      <point x="79" y="-291" type="curve"/>
      <point x="79" y="-50" type="line"/>
      <point x="225" y="-48"/>
      <point x="244" y="-19"/>
      <point x="244" y="90" type="curve" smooth="yes"/>
      <point x="244" y="367" type="line" smooth="yes"/>
      <point x="244" y="519"/>
      <point x="336" y="589"/>
    </contour>
  </outline>
</glyph>
<glyph name="exclamdown" format="1">
  <advance width="358"/>
  <unicode hex="00A1"/>
  <outline>
    <contour>
      <point x="345" y="1266" type="curve" smooth="yes"/>
      <point x="345" y="1173"/>
      <point x="266" y="1097"/>
      <point x="181" y="1097" type="curve" smooth="yes"/>
      <point x="93" y="1097"/>
      <point x="12" y="1173"/>
      <point x="12" y="1266" type="curve" smooth="yes"/>
      <point x="12" y="1358"/>
      <point x="93" y="1431"/>
      <point x="181" y="1431" type="curve" smooth="yes"/>
      <point x="266" y="1431"/>
      <point x="345" y="1358"/>
    </contour>
    <contour>
      <point x="53" y="-25" type="line"/>
      <point x="53" y="245" type="line"/>
      <point x="130" y="951" type="line"/>
      <point x="255" y="951" type="line"/>
      <point x="322" y="245" type="line"/>
      <point x="322" y="-25" type="line"/>
    </contour>
  </outline>
</glyph>
<glyph name="cent" format="1">
  <advance width="1069"/>
  <unicode hex="00A2"/>
  <outline>
    <contour>
      <point x="590" y="1343" type="line"/>
      <point x="693" y="1343" type="line"/>
      <point x="693" y="1098" type="line"/>
      <point x="805" y="1087"/>
      <point x="881" y="1059"/>
      <point x="957" y="1007" type="curve"/>
      <point x="910" y="799" type="line"/>
      <point x="876" y="823"/>
      <point x="784" y="867"/>
      <point x="693" y="877" type="curve"/>
      <point x="693" y="201" type="line"/>
      <point x="784" y="207"/>
      <point x="861" y="244"/>
      <point x="915" y="282" type="curve"/>
      <point x="973" y="72" type="line"/>
      <point x="885" y="19"/>
      <point x="808" y="-12"/>
      <point x="693" y="-19" type="curve"/>
      <point x="693" y="-330" type="line"/>
      <point x="590" y="-330" type="line"/>
      <point x="590" y="-19" type="line"/>
      <point x="306" y="0"/>
      <point x="90" y="177"/>
      <point x="90" y="570" type="curve" smooth="yes"/>
      <point x="89" y="948"/>
      <point x="339" y="1091"/>
      <point x="590" y="1101" type="curve"/>
    </contour>
    <contour>
      <point x="590" y="207" type="curve"/>
      <point x="590" y="872" type="line"/>
      <point x="473" y="849"/>
      <point x="384" y="773"/>
      <point x="384" y="559" type="curve" smooth="yes"/>
      <point x="384" y="332"/>
      <point x="464" y="235"/>
    </contour>
  </outline>
</glyph>
<glyph name="sterling" format="1">
  <advance width="1160"/>
  <unicode hex="00A3"/>
  <outline>
    <contour>
      <point x="707" y="1476" type="curve" smooth="yes"/>
      <point x="870" y="1476"/>
      <point x="1003" y="1420"/>
      <point x="1110" y="1330" type="curve"/>
      <point x="991" y="1131" type="line"/>
      <point x="903" y="1184"/>
      <point x="824" y="1229"/>
      <point x="723" y="1229" type="curve" smooth="yes"/>
      <point x="598" y="1229"/>
      <point x="539" y="1157"/>
      <point x="539" y="1032" type="curve" smooth="yes"/>
      <point x="539" y="853" type="line"/>
      <point x="918" y="853" type="line"/>
      <point x="918" y="646" type="line"/>
      <point x="539" y="646" type="line"/>
      <point x="539" y="502" type="line" smooth="yes"/>
      <point x="539" y="397"/>
      <point x="500" y="313"/>
      <point x="433" y="251" type="curve"/>
      <point x="425" y="250"/>
      <point x="552" y="250"/>
      <point x="545" y="250" type="curve"/>
      <point x="1128" y="250" type="line"/>
      <point x="1116" y="0" type="line"/>
      <point x="78" y="0" type="line"/>
      <point x="59" y="222" type="line"/>
      <point x="190" y="280"/>
      <point x="241" y="328"/>
      <point x="241" y="481" type="curve" smooth="yes"/>
      <point x="241" y="644" type="line"/>
      <point x="56" y="644" type="line"/>
      <point x="56" y="853" type="line"/>
      <point x="241" y="853" type="line"/>
      <point x="241" y="964" type="line" smooth="yes"/>
      <point x="241" y="1288"/>
      <point x="395" y="1476"/>
    </contour>
  </outline>
</glyph>
<glyph name="copyright" format="1">
  <advance width="1681"/>
  <unicode hex="00A9"/>
  <outline>
    <contour>
      <point x="1619" y="716" type="curve" smooth="yes"/>
      <point x="1619" y="325"/>
      <point x="1277" y="-20"/>
      <point x="848" y="-20" type="curve" smooth="yes"/>
      <point x="411" y="-20"/>
      <point x="74" y="325"/>
      <point x="74" y="716" type="curve" smooth="yes"/>
      <point x="74" y="1107"/>
      <point x="412" y="1454"/>
      <point x="849" y="1454" type="curve" smooth="yes"/>
      <point x="1278" y="1454"/>
      <point x="1619" y="1107"/>
    </contour>
    <contour>
      <point x="848" y="85" type="curve" smooth="yes"/>
      <point x="1195" y="85"/>
      <point x="1501" y="367"/>
      <point x="1501" y="717" type="curve" smooth="yes"/>
      <point x="1501" y="1067"/>
      <point x="1196" y="1348"/>
      <point x="849" y="1348" type="curve" smooth="yes"/>
      <point x="496" y="1348"/>
      <point x="192" y="1066"/>
      <point x="192" y="716" type="curve" smooth="yes"/>
      <point x="192" y="367"/>
      <point x="496" y="85"/>
    </contour>
    <contour>
      <point x="1074" y="443" type="curve"/>
      <point x="1121" y="325" type="line"/>
      <point x="1035" y="268"/>
      <point x="943" y="244"/>
      <point x="822" y="244" type="curve" smooth="yes"/>
      <point x="563" y="244"/>
      <point x="369" y="441"/>
      <point x="369" y="717" type="curve" smooth="yes"/>
      <point x="369" y="980"/>
      <point x="553" y="1198"/>
      <point x="815" y="1198" type="curve" smooth="yes"/>
      <point x="936" y="1198"/>
      <point x="1039" y="1175"/>
      <point x="1122" y="1121" type="curve"/>
      <point x="1079" y="1005" type="line"/>
      <point x="993" y="1052"/>
      <point x="894" y="1072"/>
      <point x="826" y="1072" type="curve" smooth="yes"/>
      <point x="634" y="1072"/>
      <point x="520" y="904"/>
      <point x="520" y="713" type="curve" smooth="yes"/>
      <point x="520" y="536"/>
      <point x="617" y="377"/>
      <point x="824" y="377" type="curve" smooth="yes"/>
      <point x="893" y="377"/>
      <point x="986" y="396"/>
    </contour>
  </outline>
</glyph>
<glyph name="logicalnot" format="1">
  <advance width="1325"/>
  <unicode hex="00AC"/>
  <outline>
    <contour>
      <point x="1184" y="840" type="line"/>
      <point x="1184" y="239" type="line"/>
      <point x="958" y="239" type="line"/>
      <point x="958" y="616" type="line"/>
      <point x="146" y="616" type="line"/>
      <point x="146" y="840" type="line"/>
    </contour>
  </outline>
</glyph>
<glyph name="uni00AD" format="1">
  <advance width="619"/>
  <unicode hex="00AD"/>
  <outline>
    <contour>
      <point x="55" y="471" type="line"/>
      <point x="55" y="709" type="line"/>
      <point x="562" y="709" type="line"/>
      <point x="562" y="471" type="line"/>
    </contour>
  </outline>
</glyph>
<glyph name="degree" format="1">
  <advance width="852"/>
  <unicode hex="00B0"/>
  <outline>
    <contour>
      <point x="292" y="1139" type="curve" smooth="yes"/>
      <point x="292" y="1084"/>
      <point x="331" y="1022"/>
      <point x="429" y="1022" type="curve" smooth="yes"/>
      <point x="523" y="1022"/>
      <point x="564" y="1084"/>
      <point x="564" y="1139" type="curve" smooth="yes"/>
      <point x="564" y="1195"/>
      <point x="499" y="1250"/>
      <point x="429" y="1250" type="curve" smooth="yes"/>
      <point x="359" y="1250"/>
      <point x="292" y="1195"/>
    </contour>
    <contour>
      <point x="111" y="1143" type="curve" smooth="yes"/>
      <point x="111" y="1283"/>
      <point x="210" y="1414"/>
      <point x="429" y="1414" type="curve" smooth="yes"/>
      <point x="644" y="1414"/>
      <point x="746" y="1283"/>
      <point x="746" y="1143" type="curve" smooth="yes"/>
      <point x="746" y="1004"/>
      <point x="647" y="858"/>
      <point x="429" y="858" type="curve" smooth="yes"/>
      <point x="207" y="858"/>
      <point x="111" y="1005"/>
    </contour>
  </outline>
</glyph>
<glyph name="periodcentered" format="1">
  <advance width="392"/>
  <unicode hex="00B7"/>
  <outline>
    <contour>
      <point x="340" y="727" type="line"/>
      <point x="340" y="441" type="line"/>
      <point x="52" y="441" type="line"/>
      <point x="52" y="727" type="line"/>
    </contour>
  </outline>
</glyph>
<glyph name="cedilla" format="1">
  <advance width="584"/>
  <unicode hex="00B8"/>
  <outline>
    <contour>
      <point x="165" y="0" type="move" name="_bottom"/>
    </contour>
    <contour>
      <point x="273" y="-323" type="line"/>
      <point x="339" y="29" type="line"/>
      <point x="159" y="29" type="line"/>
      <point x="28" y="-323" type="line"/>
    </contour>
  </outline>
</glyph>
<glyph name="guillemotright" format="1">
  <advance width="1266"/>
  <unicode hex="00BB"/>
  <outline>
    <contour>
      <point x="706" y="571" type="line"/>
      <point x="367" y="128" type="line"/>
      <point x="119" y="194" type="line"/>
      <point x="404" y="562" type="line"/>
      <point x="124" y="934" type="line"/>
      <point x="369" y="998" type="line"/>
    </contour>
    <contour>
      <point x="1169" y="571" type="line"/>
      <point x="829" y="128" type="line"/>
      <point x="584" y="194" type="line"/>
      <point x="865" y="562" type="line"/>
      <point x="588" y="934" type="line"/>
      <point x="833" y="998" type="line"/>
    </contour>
  </outline>
</glyph>
<glyph name="onehalf" format="1">
  <advance width="1939"/>
  <unicode hex="00BD"/>
  <outline>
    <contour>
      <point x="96" y="1162" type="line"/>
      <point x="87" y="1157"/>
      <point x="283" y="1243"/>
      <point x="275" y="1238" type="curve"/>
      <point x="276" y="751" type="line"/>
      <point x="119" y="751" type="line"/>
      <point x="119" y="569" type="line"/>
      <point x="666" y="569" type="line"/>
      <point x="666" y="751" type="line"/>
      <point x="515" y="751" type="line"/>
      <point x="515" y="1450" type="line"/>
      <point x="300" y="1383" type="line"/>
      <point x="309" y="1391"/>
      <point x="83" y="1331"/>
      <point x="96" y="1338" type="curve"/>
    </contour>
    <contour>
      <point x="1650" y="516" type="curve" smooth="yes"/>
      <point x="1650" y="360"/>
      <point x="1434" y="255"/>
      <point x="1265" y="135" type="curve"/>
      <point x="1263" y="-29" type="line"/>
      <point x="1823" y="-29" type="line"/>
      <point x="1849" y="128" type="line"/>
      <point x="1551" y="128" type="line"/>
      <point x="1728" y="263"/>
      <point x="1842" y="326"/>
      <point x="1842" y="518" type="curve" smooth="yes"/>
      <point x="1842" y="698"/>
      <point x="1698" y="814"/>
      <point x="1541" y="814" type="curve" smooth="yes"/>
      <point x="1407" y="814"/>
      <point x="1308" y="760"/>
      <point x="1241" y="684" type="curve"/>
      <point x="1241" y="684"/>
      <point x="1273" y="588"/>
      <point x="1300" y="535" type="curve"/>
      <point x="1344" y="587"/>
      <point x="1435" y="637"/>
      <point x="1508" y="637" type="curve" smooth="yes"/>
      <point x="1572" y="637"/>
      <point x="1650" y="596"/>
    </contour>
    <contour>
      <point x="1435" y="1424" type="line"/>
      <point x="350" y="0" type="line"/>
      <point x="592" y="0" type="line"/>
      <point x="1673" y="1424" type="line"/>
    </contour>
  </outline>
</glyph>
<glyph name="Eth" format="1">
  <advance width="1524"/>
  <unicode hex="00D0"/>
  <outline>
    <contour>
      <point x="-9" y="620" type="line"/>
      <point x="-9" y="827" type="line"/>
      <point x="120" y="827" type="line"/>
      <point x="120" y="1442" type="line"/>
      <point x="524" y="1442" type="line" smooth="yes"/>
      <point x="1085" y="1442"/>
      <point x="1458" y="1243"/>
      <point x="1458" y="723" type="curve" smooth="yes"/>
      <point x="1458" y="258"/>
      <point x="1114" y="1"/>
      <point x="614" y="1" type="curve" smooth="yes"/>
      <point x="120" y="1" type="line"/>
      <point x="120" y="620" type="line"/>
    </contour>
    <contour>
      <point x="445" y="827" type="line"/>
      <point x="616" y="827" type="line"/>
      <point x="616" y="620" type="line"/>
      <point x="445" y="620" type="line"/>
      <point x="445" y="238" type="line"/>
      <point x="629" y="238" type="line" smooth="yes"/>
      <point x="959" y="238"/>
      <point x="1137" y="417"/>
      <point x="1137" y="719" type="curve" smooth="yes"/>
      <point x="1137" y="1079"/>
      <point x="951" y="1202"/>
      <point x="542" y="1202" type="curve" smooth="yes"/>
      <point x="445" y="1202" type="line"/>
    </contour>
  </outline>
</glyph>
<glyph name="multiply" format="1">
  <advance width="1648"/>
  <unicode hex="00D7"/>
  <outline>
    <contour>
      <point x="1321" y="994" type="line"/>
      <point x="984" y="664" type="line"/>
      <point x="1104" y="545"/>
      <point x="1287" y="360"/>
      <point x="1405" y="240" type="curve"/>
      <point x="1288" y="126" type="line"/>
      <point x="933" y="455" type="line"/>
      <point x="490" y="32" type="line"/>
      <point x="380" y="141" type="line"/>
      <point x="714" y="476" type="line"/>
      <point x="296" y="899" type="line"/>
      <point x="410" y="1015" type="line"/>
      <point x="765" y="684" type="line"/>
      <point x="1206" y="1109" type="line"/>
    </contour>
  </outline>
</glyph>
<glyph name="Thorn" format="1">
  <advance width="1350"/>
  <unicode hex="00DE"/>
  <outline>
    <contour>
      <point x="197" y="18" type="line"/>
      <point x="447" y="18" type="line"/>
      <point x="447" y="332" type="line"/>
      <point x="447" y="332"/>
      <point x="729" y="333"/>
      <point x="728" y="333" type="curve" smooth="yes"/>
      <point x="1023" y="333"/>
      <point x="1315" y="475"/>
      <point x="1315" y="781" type="curve" smooth="yes"/>
      <point x="1315" y="1108"/>
      <point x="1032" y="1237"/>
      <point x="712" y="1237" type="curve" smooth="yes"/>
      <point x="447" y="1237" type="line"/>
      <point x="447" y="1428" type="line"/>
      <point x="197" y="1428" type="line"/>
    </contour>
    <contour>
      <point x="449" y="560" type="line"/>
      <point x="447" y="1042" type="line"/>
      <point x="737" y="1042" type="line" smooth="yes"/>
      <point x="924" y="1042"/>
      <point x="1056" y="975"/>
      <point x="1056" y="799" type="curve" smooth="yes"/>
      <point x="1056" y="638"/>
      <point x="923" y="560"/>
      <point x="756" y="560" type="curve" smooth="yes"/>
    </contour>
  </outline>
</glyph>
<glyph name="germandbls" format="1">
  <advance width="1282"/>
  <unicode hex="00DF"/>
  <outline>
    <contour>
      <point x="765" y="198" type="line"/>
      <point x="867" y="198"/>
      <point x="922" y="256"/>
      <point x="922" y="347" type="curve" smooth="yes"/>
      <point x="922" y="500"/>
      <point x="738" y="549"/>
      <point x="587" y="637" type="curve"/>
      <point x="550" y="656"/>
      <point x="497" y="697"/>
      <point x="497" y="763" type="curve" smooth="yes"/>
      <point x="497" y="824"/>
      <point x="542" y="862"/>
      <point x="573" y="884" type="curve" smooth="yes"/>
      <point x="662" y="947"/>
      <point x="776" y="1013"/>
      <point x="776" y="1120" type="curve" smooth="yes"/>
      <point x="776" y="1205"/>
      <point x="704" y="1252"/>
      <point x="591" y="1252" type="curve" smooth="yes"/>
      <point x="426" y="1252"/>
      <point x="412" y="1152"/>
      <point x="412" y="991" type="curve" smooth="yes"/>
      <point x="412" y="0" type="line"/>
      <point x="101" y="0" type="line"/>
      <point x="101" y="1011" type="line" smooth="yes"/>
      <point x="101" y="1300"/>
      <point x="283" y="1468"/>
      <point x="592" y="1468" type="curve" smooth="yes"/>
      <point x="830" y="1468"/>
      <point x="1065" y="1364"/>
      <point x="1065" y="1120" type="curve" smooth="yes"/>
      <point x="1065" y="948"/>
      <point x="910" y="841"/>
      <point x="800" y="774" type="curve"/>
      <point x="969" y="697"/>
      <point x="1225" y="583"/>
      <point x="1225" y="341" type="curve" smooth="yes"/>
      <point x="1225" y="115"/>
      <point x="1041" y="0"/>
      <point x="798" y="0" type="curve" smooth="yes"/>
      <point x="538" y="0" type="line" smooth="yes"/>
      <point x="541" y="0"/>
      <point x="570" y="198"/>
      <point x="570" y="198" type="curve"/>
    </contour>
  </outline>
</glyph>
<glyph name="dcroat" format="1">
  <advance width="1277"/>
  <unicode hex="0111"/>
  <outline>
    <contour>
      <point x="624" y="203" type="curve" smooth="yes"/>
      <point x="740" y="203"/>
      <point x="875" y="256"/>
      <point x="875" y="556" type="curve" smooth="yes"/>
      <point x="875" y="851"/>
      <point x="733" y="918"/>
      <point x="625" y="918" type="curve" smooth="yes"/>
      <point x="518" y="918"/>
      <point x="357" y="875"/>
      <point x="357" y="555" type="curve" smooth="yes"/>
      <point x="357" y="256"/>
      <point x="513" y="203"/>
    </contour>
    <contour>
      <point x="562" y="-19" type="curve"/>
      <point x="247" y="-11"/>
      <point x="63" y="240"/>
      <point x="63" y="566" type="curve" smooth="yes"/>
      <point x="63" y="872"/>
      <point x="233" y="1141"/>
      <point x="559" y="1141" type="curve" smooth="yes"/>
      <point x="753" y="1141"/>
      <point x="834" y="1054"/>
      <point x="870" y="986" type="curve"/>
      <point x="870" y="1215" type="line"/>
      <point x="546" y="1215" type="line"/>
      <point x="546" y="1357" type="line"/>
      <point x="870" y="1357" type="line"/>
      <point x="870" y="1501" type="line"/>
      <point x="1179" y="1517" type="line"/>
      <point x="1179" y="1357" type="line"/>
      <point x="1278" y="1357" type="line"/>
      <point x="1278" y="1215" type="line"/>
      <point x="1179" y="1215" type="line"/>
      <point x="1179" y="0" type="line"/>
      <point x="873" y="0" type="line"/>
      <point x="870" y="144" type="line"/>
      <point x="820" y="51"/>
      <point x="725" y="-19"/>
    </contour>
  </outline>
</glyph>
<glyph name="Hbar" format="1">
  <advance width="1508"/>
  <unicode hex="0126"/>
  <outline>
    <contour>
      <point x="445" y="1197" type="line"/>
      <point x="445" y="857" type="line"/>
      <point x="1066" y="857" type="line"/>
      <point x="1066" y="1197" type="line"/>
    </contour>
    <contour>
      <point x="1066" y="634" type="line"/>
      <point x="445" y="634" type="line"/>
      <point x="445" y="0" type="line"/>
      <point x="120" y="0" type="line"/>
      <point x="120" y="1197" type="line"/>
      <point x="37" y="1197" type="line"/>
      <point x="37" y="1348" type="line"/>
      <point x="120" y="1348" type="line"/>
      <point x="120" y="1434" type="line"/>
      <point x="445" y="1434" type="line"/>
      <point x="445" y="1348" type="line"/>
      <point x="1066" y="1348" type="line"/>
      <point x="1066" y="1434" type="line"/>
      <point x="1391" y="1434" type="line"/>
      <point x="1391" y="1348" type="line"/>
      <point x="1474" y="1348" type="line"/>
      <point x="1474" y="1197" type="line"/>
      <point x="1391" y="1197" type="line"/>
      <point x="1391" y="0" type="line"/>
      <point x="1066" y="0" type="line"/>
    </contour>
  </outline>
</glyph>
<glyph name="dotlessi" format="1">
  <advance width="622"/>
  <unicode hex="0131"/>
  <outline>
    <contour>
      <point x="312" y="1098" type="move" name="top"/>
    </contour>
    <contour>
      <point x="559" y="10" type="move" name="ogonek"/>
    </contour>
    <contour>
      <point x="434" y="1098" type="line"/>
      <point x="434" y="0" type="line"/>
      <point x="125" y="0" type="line"/>
      <point x="125" y="1098" type="line"/>
    </contour>
  </outline>
</glyph>
<glyph name="lslash" format="1">
  <advance width="736"/>
  <unicode hex="0142"/>
  <outline>
    <contour>
      <point x="597" y="1212" type="line"/>
      <point x="597" y="1008" type="line"/>
      <point x="450" y="935" type="line"/>
      <point x="450" y="442" type="line" smooth="yes"/>
      <point x="450" y="274"/>
      <point x="462" y="221"/>
      <point x="627" y="221" type="curve" smooth="yes"/>
      <point x="629" y="221"/>
      <point x="719" y="227"/>
      <point x="708" y="226" type="curve"/>
      <point x="725" y="3" type="line"/>
      <point x="736" y="4"/>
      <point x="632" y="-11"/>
      <point x="567" y="-11" type="curve" smooth="yes"/>
      <point x="219" y="-11"/>
      <point x="142" y="154"/>
      <point x="142" y="453" type="curve" smooth="yes"/>
      <point x="142" y="767" type="line"/>
      <point x="30" y="712" type="line"/>
      <point x="30" y="919" type="line"/>
      <point x="142" y="975" type="line"/>
      <point x="142" y="1497" type="line"/>
      <point x="450" y="1517" type="line"/>
      <point x="450" y="1141" type="line"/>
    </contour>
  </outline>
</glyph>
<glyph name="Eng" format="1">
  <advance width="1419"/>
  <unicode hex="014A"/>
  <outline>
    <contour>
      <point x="812" y="-297" type="curve"/>
      <point x="1212" y="-297"/>
      <point x="1333" y="-193"/>
      <point x="1333" y="133" type="curve" smooth="yes"/>
      <point x="1333" y="925" type="line" smooth="yes"/>
      <point x="1333" y="1259"/>
      <point x="1192" y="1470"/>
      <point x="842" y="1470" type="curve" smooth="yes"/>
      <point x="679" y="1470"/>
      <point x="488" y="1365"/>
      <point x="433" y="1285" type="curve"/>
      <point x="401" y="1442" type="line"/>
      <point x="121" y="1442" type="line"/>
      <point x="122" y="0" type="line"/>
      <point x="447" y="0" type="line"/>
      <point x="447" y="1035" type="line"/>
      <point x="534" y="1199"/>
      <point x="735" y="1227"/>
      <point x="803" y="1227" type="curve" smooth="yes"/>
      <point x="953" y="1227"/>
      <point x="1008" y="1127"/>
      <point x="1008" y="908" type="curve" smooth="yes"/>
      <point x="1008" y="121" type="line" smooth="yes"/>
      <point x="1008" y="-12"/>
      <point x="978" y="-70"/>
      <point x="845" y="-70" type="curve" smooth="yes"/>
      <point x="850" y="-70"/>
      <point x="751" y="-70"/>
      <point x="781" y="-72" type="curve"/>
      <point x="799" y="-301" type="line"/>
      <point x="772" y="-298"/>
      <point x="818" y="-297"/>
    </contour>
  </outline>
</glyph>
<glyph name="OE" format="1">
  <advance width="2299"/>
  <unicode hex="0152"/>
  <outline>
    <contour>
      <point x="1150" y="1436" type="move" name="top"/>
    </contour>
    <contour>
      <point x="815" y="1468" type="curve" smooth="yes"/>
      <point x="957" y="1468"/>
      <point x="1074" y="1429"/>
      <point x="1181" y="1365" type="curve"/>
      <point x="1181" y="1440" type="line"/>
      <point x="2243" y="1440" type="line"/>
      <point x="2225" y="1203" type="line"/>
      <point x="1488" y="1203" type="line"/>
      <point x="1488" y="874" type="line"/>
      <point x="2197" y="874" type="line"/>
      <point x="2197" y="642" type="line"/>
      <point x="1488" y="642" type="line"/>
      <point x="1488" y="242" type="line"/>
      <point x="2276" y="242" type="line"/>
      <point x="2257" y="6" type="line"/>
      <point x="1181" y="6" type="line"/>
      <point x="1181" y="87" type="line"/>
      <point x="1067" y="18"/>
      <point x="958" y="-17"/>
      <point x="810" y="-17" type="curve" smooth="yes"/>
      <point x="403" y="-17"/>
      <point x="68" y="298"/>
      <point x="68" y="717" type="curve" smooth="yes"/>
      <point x="66" y="1152"/>
      <point x="391" y="1468"/>
    </contour>
    <contour>
      <point x="1181" y="1087" type="line"/>
      <point x="1106" y="1168"/>
      <point x="986" y="1226"/>
      <point x="808" y="1226" type="curve" smooth="yes"/>
      <point x="517" y="1226"/>
      <point x="374" y="957"/>
      <point x="375" y="711" type="curve" smooth="yes"/>
      <point x="375" y="466"/>
      <point x="532" y="223"/>
      <point x="806" y="224" type="curve" smooth="yes"/>
      <point x="986" y="224"/>
      <point x="1100" y="275"/>
      <point x="1181" y="358" type="curve"/>
    </contour>
  </outline>
</glyph>
<glyph name="oe" format="1">
  <advance width="1857"/>
  <unicode hex="0153"/>
  <outline>
    <contour>
      <point x="929" y="1098" type="move" name="top"/>
    </contour>
    <contour>
      <point x="600" y="-19" type="curve" smooth="yes"/>
      <point x="782" y="-19"/>
      <point x="919" y="55"/>
      <point x="983" y="155" type="curve"/>
      <point x="1052" y="44"/>
      <point x="1189" y="-19"/>
      <point x="1401" y="-19" type="curve" smooth="yes"/>
      <point x="1585" y="-19"/>
      <point x="1683" y="35"/>
      <point x="1779" y="105" type="curve"/>
      <point x="1694" y="280" type="line"/>
      <point x="1632" y="230"/>
      <point x="1538" y="183"/>
      <point x="1408" y="183" type="curve" smooth="yes"/>
      <point x="1219" y="183"/>
      <point x="1127" y="290"/>
      <point x="1120" y="488" type="curve"/>
      <point x="1811" y="488" type="line"/>
      <point x="1811" y="484"/>
      <point x="1813" y="551"/>
      <point x="1813" y="582" type="curve" smooth="yes"/>
      <point x="1813" y="868"/>
      <point x="1700" y="1117"/>
      <point x="1359" y="1117" type="curve" smooth="yes"/>
      <point x="1174" y="1118"/>
      <point x="1050" y="1064"/>
      <point x="984" y="951" type="curve"/>
      <point x="908" y="1052"/>
      <point x="780" y="1117"/>
      <point x="600" y="1117" type="curve" smooth="yes"/>
      <point x="225" y="1117"/>
      <point x="60" y="882"/>
      <point x="60" y="554" type="curve" smooth="yes"/>
      <point x="60" y="245"/>
      <point x="226" y="-19"/>
    </contour>
    <contour>
      <point x="597" y="184" type="curve" smooth="yes"/>
      <point x="470" y="184"/>
      <point x="354" y="302"/>
      <point x="354" y="555" type="curve" smooth="yes"/>
      <point x="354" y="816"/>
      <point x="466" y="914"/>
      <point x="598" y="914" type="curve" smooth="yes"/>
      <point x="724" y="914"/>
      <point x="845" y="823"/>
      <point x="845" y="554" type="curve" smooth="yes"/>
      <point x="845" y="295"/>
      <point x="726" y="184"/>
    </contour>
    <contour>
      <point x="1122" y="654" type="line"/>
      <point x="1136" y="882"/>
      <point x="1260" y="913"/>
      <point x="1339" y="913" type="curve" smooth="yes"/>
      <point x="1475" y="913"/>
      <point x="1536" y="835"/>
      <point x="1535" y="662" type="curve" smooth="yes"/>
      <point x="1535" y="663"/>
      <point x="1535" y="653"/>
      <point x="1535" y="654" type="curve"/>
    </contour>
  </outline>
</glyph>
<glyph name="uni018F" format="1">
  <advance width="1467"/>
  <unicode hex="018F"/>
  <outline>
    <contour>
      <point x="1021" y="572" type="curve"/>
      <point x="378" y="572" type="line"/>
      <point x="397" y="330"/>
      <point x="516" y="229"/>
      <point x="661" y="229" type="curve" smooth="yes"/>
      <point x="870" y="229"/>
      <point x="983" y="368"/>
    </contour>
    <contour>
      <point x="646" y="-19" type="curve" smooth="yes"/>
      <point x="344" y="-19"/>
      <point x="102" y="148"/>
      <point x="84" y="741" type="curve" smooth="yes"/>
      <point x="83" y="758"/>
      <point x="81" y="766"/>
      <point x="81" y="794" type="curve"/>
      <point x="1033" y="794" type="line"/>
      <point x="1007" y="1093"/>
      <point x="832" y="1214"/>
      <point x="594" y="1214" type="curve" smooth="yes"/>
      <point x="436" y="1214"/>
      <point x="301" y="1173"/>
      <point x="200" y="1118" type="curve"/>
      <point x="105" y="1327" type="line"/>
      <point x="233" y="1428"/>
      <point x="406" y="1468"/>
      <point x="605" y="1468" type="curve" smooth="yes"/>
      <point x="1083" y="1468"/>
      <point x="1362" y="1148"/>
      <point x="1362" y="728" type="curve" smooth="yes"/>
      <point x="1362" y="260"/>
      <point x="1060" y="-19"/>
    </contour>
  </outline>
</glyph>
<glyph name="uni0259" format="1">
  <advance width="1130"/>
  <unicode hex="0259"/>
  <outline>
    <contour>
      <point x="493" y="1141" type="curve" smooth="yes"/>
      <point x="308" y="1141"/>
      <point x="189" y="1087"/>
      <point x="94" y="1018" type="curve"/>
      <point x="179" y="826" type="line"/>
      <point x="241" y="877"/>
      <point x="353" y="924"/>
      <point x="483" y="924" type="curve" smooth="yes"/>
      <point x="672" y="924"/>
      <point x="776" y="833"/>
      <point x="783" y="635" type="curve"/>
      <point x="62" y="635" type="line"/>
      <point x="62" y="605"/>
      <point x="60" y="570"/>
      <point x="60" y="540" type="curve" smooth="yes"/>
      <point x="60" y="254"/>
      <point x="209" y="-19"/>
      <point x="549" y="-19" type="curve" smooth="yes"/>
      <point x="958" y="-19"/>
      <point x="1086" y="240"/>
      <point x="1086" y="563" type="curve" smooth="yes"/>
      <point x="1086" y="917"/>
      <point x="880" y="1141"/>
    </contour>
    <contour>
      <point x="543" y="205" type="curve" smooth="yes"/>
      <point x="408" y="205"/>
      <point x="338" y="303"/>
      <point x="338" y="475" type="curve"/>
      <point x="781" y="475" type="line"/>
      <point x="767" y="247"/>
      <point x="622" y="205"/>
    </contour>
  </outline>
</glyph>
<glyph name="afii57929" format="1">
  <advance width="312"/>
  <unicode hex="02BC"/>
  <outline>
    <contour>
      <point x="94" y="900" type="line"/>
      <point x="27" y="1426" type="line"/>
      <point x="260" y="1426" type="line"/>
      <point x="251" y="900" type="line"/>
    </contour>
  </outline>
</glyph>
<glyph name="caron" format="1">
  <advance width="755"/>
  <unicode hex="02C7"/>
  <outline>
    <contour>
      <point x="404" y="1098" type="move" name="_top"/>
    </contour>
    <contour>
      <point x="-3" y="1487" type="line"/>
      <point x="238" y="1487" type="line"/>
      <point x="398" y="1364" type="line"/>
      <point x="563" y="1487" type="line"/>
      <point x="811" y="1487" type="line"/>
      <point x="502" y="1157" type="line"/>
      <point x="306" y="1157" type="line"/>
    </contour>
  </outline>
</glyph>
<glyph name="dotaccent" format="1">
  <advance width="620"/>
  <unicode hex="02D9"/>
  <outline>
    <contour>
      <point x="290" y="1098" type="move" name="_top"/>
    </contour>
    <contour>
      <point x="401" y="1446" type="line"/>
      <point x="401" y="1217" type="line"/>
      <point x="179" y="1217" type="line"/>
      <point x="179" y="1446" type="line"/>
    </contour>
  </outline>
</glyph>
<glyph name="ring" format="1">
  <advance width="679"/>
  <unicode hex="02DA"/>
  <outline>
    <contour>
      <point x="336" y="1098" type="move" name="_top"/>
    </contour>
    <contour>
      <point x="336" y="1200" type="curve" smooth="yes"/>
      <point x="415" y="1200"/>
      <point x="449" y="1256"/>
      <point x="449" y="1311" type="curve" smooth="yes"/>
      <point x="449" y="1365"/>
      <point x="413" y="1421"/>
      <point x="336" y="1421" type="curve" smooth="yes"/>
      <point x="259" y="1421"/>
      <point x="223" y="1365"/>
      <point x="223" y="1311" type="curve" smooth="yes"/>
      <point x="223" y="1258"/>
      <point x="260" y="1200"/>
    </contour>
    <contour>
      <point x="336" y="1519" type="curve" smooth="yes"/>
      <point x="501" y="1519"/>
      <point x="573" y="1413"/>
      <point x="573" y="1311" type="curve" smooth="yes"/>
      <point x="573" y="1210"/>
      <point x="498" y="1096"/>
      <point x="335" y="1096" type="curve" smooth="yes"/>
      <point x="174" y="1096"/>
      <point x="99" y="1210"/>
      <point x="99" y="1311" type="curve" smooth="yes"/>
      <point x="99" y="1412"/>
      <point x="171" y="1519"/>
    </contour>
  </outline>
</glyph>
<glyph name="hungarumlaut" format="1">
  <advance width="1086"/>
  <unicode hex="02DD"/>
  <outline>
    <contour>
      <point x="617" y="1098" type="move" name="_top"/>
    </contour>
    <contour>
      <point x="711" y="1467" type="line"/>
      <point x="320" y="1089" type="line"/>
      <point x="163" y="1089" type="line"/>
      <point x="440" y="1467" type="line"/>
    </contour>
    <contour>
      <point x="1071" y="1467" type="line"/>
      <point x="678" y="1089" type="line"/>
      <point x="524" y="1089" type="line"/>
      <point x="799" y="1467" type="line"/>
    </contour>
  </outline>
</glyph>
<glyph name="Epsilon" format="1">
  <advance width="1150"/>
  <unicode hex="0395"/>
  <outline>
    <contour>
      <point x="576" y="1436" type="move" name="top"/>
    </contour>
    <component base="E"/>
  </outline>
</glyph>
<glyph name="omicron" format="1">
  <advance width="1235"/>
  <unicode hex="03BF"/>
  <outline>
    <contour>
      <point x="619" y="1098" type="move" name="top"/>
    </contour>
    <component base="o"/>
  </outline>
</glyph>
<glyph name="afii10053" format="1">
  <advance width="1440"/>
  <unicode hex="0404"/>
  <outline>
    <contour>
      <point x="426" y="636" type="line"/>
      <point x="466" y="353"/>
      <point x="658" y="224"/>
      <point x="866" y="224" type="curve" smooth="yes"/>
      <point x="977" y="224"/>
      <point x="1103" y="270"/>
      <point x="1226" y="347" type="curve"/>
      <point x="1322" y="115" type="line"/>
      <point x="1144" y="25"/>
      <point x="977" y="-17"/>
      <point x="838" y="-17" type="curve" smooth="yes"/>
      <point x="470" y="-17"/>
      <point x="117" y="271"/>
      <point x="117" y="728" type="curve" smooth="yes"/>
      <point x="117" y="1197"/>
      <point x="488" y="1468"/>
      <point x="846" y="1468" type="curve" smooth="yes"/>
      <point x="987" y="1468"/>
      <point x="1159" y="1421"/>
      <point x="1325" y="1325" type="curve"/>
      <point x="1227" y="1094" type="line"/>
      <point x="1100" y="1180"/>
      <point x="974" y="1226"/>
      <point x="860" y="1226" type="curve" smooth="yes"/>
      <point x="678" y="1226"/>
      <point x="494" y="1099"/>
      <point x="434" y="868" type="curve"/>
      <point x="1090" y="868" type="line"/>
      <point x="1090" y="636" type="line"/>
    </contour>
  </outline>
</glyph>
<glyph name="afii10018" format="1">
  <advance width="1371"/>
  <unicode hex="0411"/>
  <outline>
    <contour>
      <point x="120" y="1434" type="line"/>
      <point x="1175" y="1434" type="line"/>
      <point x="1175" y="1202" type="line"/>
      <point x="446" y="1202" type="line"/>
      <point x="445" y="864" type="line"/>
      <point x="728" y="864" type="line" smooth="yes"/>
      <point x="1039" y="864"/>
      <point x="1305" y="744"/>
      <point x="1305" y="434" type="curve" smooth="yes"/>
      <point x="1305" y="117"/>
      <point x="1017" y="0"/>
      <point x="687" y="0" type="curve" smooth="yes"/>
      <point x="120" y="0" type="line"/>
    </contour>
    <contour>
      <point x="991" y="435" type="curve" smooth="yes"/>
      <point x="991" y="581"/>
      <point x="873" y="632"/>
      <point x="709" y="632" type="curve" smooth="yes"/>
      <point x="445" y="632" type="line"/>
      <point x="445" y="231" type="line"/>
      <point x="710" y="231" type="line" smooth="yes"/>
      <point x="878" y="231"/>
      <point x="991" y="287"/>
    </contour>
  </outline>
</glyph>
<glyph name="afii10020" format="1">
  <advance width="1735"/>
  <unicode hex="0413"/>
  <outline>
    <contour>
      <point x="868" y="1436" type="move" name="top"/>
    </contour>
    <contour>
      <point x="1076" y="1202" type="line"/>
      <point x="445" y="1202" type="line"/>
      <point x="445" y="0" type="line"/>
      <point x="120" y="0" type="line"/>
      <point x="120" y="1434" type="line"/>
      <point x="1102" y="1434" type="line"/>
    </contour>
  </outline>
</glyph>
<glyph name="afii10025" format="1">
  <advance width="1314"/>
  <unicode hex="0417"/>
  <outline>
    <contour>
      <point x="657" y="1436" type="move" name="top"/>
    </contour>
    <contour>
      <point x="657" y="0" type="move" name="bottom"/>
    </contour>
    <contour>
      <point x="710" y="624" type="curve" smooth="yes"/>
      <point x="476" y="624" type="line"/>
      <point x="476" y="863" type="line"/>
      <point x="709" y="863" type="line" smooth="yes"/>
      <point x="807" y="863"/>
      <point x="937" y="844"/>
      <point x="937" y="1034" type="curve" smooth="yes"/>
      <point x="939" y="1108"/>
      <point x="843" y="1214"/>
      <point x="671" y="1214" type="curve" smooth="yes"/>
      <point x="483" y="1214"/>
      <point x="398" y="1176"/>
      <point x="318" y="1112" type="curve"/>
      <point x="203" y="1320" type="line"/>
      <point x="327" y="1428"/>
      <point x="478" y="1470"/>
      <point x="678" y="1470" type="curve" smooth="yes"/>
      <point x="932" y="1470"/>
      <point x="1229" y="1335"/>
      <point x="1229" y="1074" type="curve" smooth="yes"/>
      <point x="1229" y="855"/>
      <point x="1173" y="795"/>
      <point x="1082" y="740" type="curve"/>
      <point x="1204" y="667"/>
      <point x="1263" y="539"/>
      <point x="1263" y="419" type="curve" smooth="yes"/>
      <point x="1263" y="148"/>
      <point x="1080" y="-17"/>
      <point x="682" y="-17" type="curve" smooth="yes"/>
      <point x="482" y="-17"/>
      <point x="255" y="33"/>
      <point x="160" y="145" type="curve"/>
      <point x="206" y="223"/>
      <point x="231" y="274"/>
      <point x="274" y="356" type="curve"/>
      <point x="367" y="298"/>
      <point x="512" y="229"/>
      <point x="688" y="229" type="curve" smooth="yes"/>
      <point x="969" y="229"/>
      <point x="992" y="333"/>
      <point x="992" y="435" type="curve" smooth="yes"/>
      <point x="992" y="553"/>
      <point x="810" y="624"/>
    </contour>
  </outline>
</glyph>
<glyph name="afii10026" format="1">
  <advance width="1465"/>
  <unicode hex="0418"/>
  <outline>
    <contour>
      <point x="733" y="1436" type="move" name="top"/>
    </contour>
    <contour>
      <point x="120" y="0" type="line"/>
      <point x="120" y="1433" type="line"/>
      <point x="418" y="1433" type="line"/>
      <point x="418" y="516" type="line"/>
      <point x="360" y="428"/>
      <point x="1135" y="1380"/>
      <point x="1076" y="1293" type="curve"/>
      <point x="1073" y="1288"/>
      <point x="1091" y="1438"/>
      <point x="1088" y="1433" type="curve"/>
      <point x="1355" y="1433" type="line"/>
      <point x="1355" y="0" type="line"/>
      <point x="1058" y="0" type="line"/>
      <point x="1058" y="795" type="line"/>
      <point x="379" y="0" type="line"/>
    </contour>
  </outline>
</glyph>
<glyph name="afii10028" format="1">
  <advance width="1372"/>
  <unicode hex="041A"/>
  <outline>
    <contour>
      <point x="686" y="1436" type="move" name="top"/>
    </contour>
    <component base="K"/>
  </outline>
</glyph>
<glyph name="afii10040" format="1">
  <advance width="1576"/>
  <unicode hex="0426"/>
  <outline>
    <contour>
      <point x="1067" y="222" type="line"/>
      <point x="1067" y="1434" type="line"/>
      <point x="1392" y="1434" type="line"/>
      <point x="1392" y="73" type="line"/>
      <point x="1555" y="73" type="line"/>
      <point x="1555" y="-387" type="line"/>
      <point x="1283" y="-387" type="line"/>
      <point x="1281" y="0" type="line"/>
      <point x="120" y="0" type="line"/>
      <point x="120" y="1434" type="line"/>
      <point x="445" y="1434" type="line"/>
      <point x="445" y="222" type="line"/>
    </contour>
  </outline>
</glyph>
<glyph name="afii10041" format="1">
  <advance width="2165"/>
  <unicode hex="0427"/>
  <outline>
    <contour>
      <point x="1172" y="776" type="curve"/>
      <point x="1172" y="1428" type="line"/>
      <point x="1455" y="1428" type="line"/>
      <point x="1455" y="18" type="line"/>
      <point x="1172" y="18" type="line"/>
      <point x="1170" y="552" type="line"/>
      <point x="1188" y="579"/>
      <point x="910" y="591"/>
      <point x="941" y="591" type="curve" smooth="yes"/>
      <point x="523" y="591"/>
      <point x="210" y="607"/>
      <point x="210" y="1028" type="curve" smooth="yes"/>
      <point x="210" y="1428" type="line"/>
      <point x="465" y="1428" type="line"/>
      <point x="465" y="1008" type="line" smooth="yes"/>
      <point x="465" y="828"/>
      <point x="595" y="821"/>
      <point x="869" y="821" type="curve" smooth="yes"/>
      <point x="838" y="821"/>
      <point x="1172" y="791"/>
    </contour>
  </outline>
</glyph>
<glyph name="afii10046" format="1">
  <advance width="1383"/>
  <unicode hex="042C"/>
  <outline>
    <contour>
      <point x="463" y="1428" type="line"/>
      <point x="463" y="985" type="line"/>
      <point x="789" y="985" type="line" smooth="yes"/>
      <point x="1114" y="985"/>
      <point x="1357" y="818"/>
      <point x="1357" y="500" type="curve" smooth="yes"/>
      <point x="1357" y="178"/>
      <point x="1107" y="18"/>
      <point x="792" y="18" type="curve" smooth="yes"/>
      <point x="197" y="18" type="line"/>
      <point x="197" y="1428" type="line"/>
    </contour>
    <contour>
      <point x="463" y="752" type="line"/>
      <point x="463" y="249" type="line"/>
      <point x="810" y="249" type="line" smooth="yes"/>
      <point x="995" y="249"/>
      <point x="1096" y="350"/>
      <point x="1096" y="502" type="curve" smooth="yes"/>
      <point x="1096" y="651"/>
      <point x="992" y="752"/>
      <point x="810" y="752" type="curve" smooth="yes"/>
    </contour>
  </outline>
</glyph>
<glyph name="afii10066" format="1">
  <advance width="1135"/>
  <unicode hex="0431"/>
  <outline>
    <contour>
      <point x="634" y="496" type="curve" smooth="yes"/>
      <point x="410" y="496" type="line"/>
      <point x="410" y="216" type="line"/>
      <point x="642" y="216" type="line" smooth="yes"/>
      <point x="731" y="216"/>
      <point x="786" y="278"/>
      <point x="786" y="360" type="curve" smooth="yes"/>
      <point x="786" y="431"/>
      <point x="737" y="496"/>
    </contour>
    <contour>
      <point x="102" y="1098" type="line"/>
      <point x="949" y="1098" type="line"/>
      <point x="949" y="875" type="line"/>
      <point x="409" y="875" type="line"/>
      <point x="409" y="705" type="line"/>
      <point x="659" y="705" type="line" smooth="yes"/>
      <point x="841" y="705"/>
      <point x="1059" y="615"/>
      <point x="1059" y="358" type="curve" smooth="yes"/>
      <point x="1059" y="124"/>
      <point x="888" y="0"/>
      <point x="679" y="0" type="curve" smooth="yes"/>
      <point x="102" y="0" type="line"/>
    </contour>
  </outline>
</glyph>
<glyph name="afii10067" format="1">
  <advance width="1165"/>
  <unicode hex="0432"/>
  <outline>
    <contour>
      <point x="1104" y="321" type="curve" smooth="yes"/>
      <point x="1104" y="78"/>
      <point x="918" y="0"/>
      <point x="700" y="0" type="curve" smooth="yes"/>
      <point x="102" y="0" type="line"/>
      <point x="102" y="1098" type="line"/>
      <point x="666" y="1098" type="line" smooth="yes"/>
      <point x="890" y="1098"/>
      <point x="1076" y="1024"/>
      <point x="1076" y="793" type="curve" smooth="yes"/>
      <point x="1076" y="688"/>
      <point x="1010" y="599"/>
      <point x="899" y="574" type="curve"/>
      <point x="1027" y="563"/>
      <point x="1105" y="438"/>
    </contour>
    <contour>
      <point x="708" y="462" type="curve" smooth="yes"/>
      <point x="410" y="462" type="line"/>
      <point x="410" y="215" type="line"/>
      <point x="708" y="215" type="line" smooth="yes"/>
      <point x="796" y="215"/>
      <point x="838" y="278"/>
      <point x="838" y="335" type="curve" smooth="yes"/>
      <point x="839" y="399"/>
      <point x="795" y="462"/>
    </contour>
    <contour>
      <point x="410" y="653" type="line"/>
      <point x="695" y="653" type="line" smooth="yes"/>
      <point x="769" y="653"/>
      <point x="808" y="709"/>
      <point x="808" y="765" type="curve" smooth="yes"/>
      <point x="808" y="817"/>
      <point x="771" y="872"/>
      <point x="695" y="872" type="curve" smooth="yes"/>
      <point x="410" y="872" type="line"/>
    </contour>
  </outline>
</glyph>
<glyph name="afii10068" format="1">
  <advance width="783"/>
  <unicode hex="0433"/>
  <outline>
    <contour>
      <point x="392" y="1098" type="move" name="top"/>
    </contour>
    <contour>
      <point x="711" y="867" type="line"/>
      <point x="410" y="867" type="line"/>
      <point x="410" y="0" type="line"/>
      <point x="102" y="0" type="line"/>
      <point x="102" y="1098" type="line"/>
      <point x="711" y="1098" type="line"/>
    </contour>
  </outline>
</glyph>
<glyph name="afii10069" format="1">
  <advance width="1282"/>
  <unicode hex="0434"/>
  <outline>
    <contour>
      <point x="56" y="-383" type="line"/>
      <point x="56" y="222" type="line"/>
      <point x="130" y="222" type="line"/>
      <point x="193" y="352"/>
      <point x="286" y="619"/>
      <point x="284" y="940" type="curve" smooth="yes"/>
      <point x="277" y="1098" type="line"/>
      <point x="1140" y="1098" type="line"/>
      <point x="1140" y="222" type="line"/>
      <point x="1282" y="222" type="line"/>
      <point x="1282" y="-383" type="line"/>
      <point x="1026" y="-383" type="line"/>
      <point x="999" y="0" type="line"/>
      <point x="339" y="0" type="line"/>
      <point x="323" y="-383" type="line"/>
    </contour>
    <contour>
      <point x="480" y="222" type="curve"/>
      <point x="831" y="222" type="line"/>
      <point x="831" y="866" type="line"/>
      <point x="589" y="866" type="line"/>
      <point x="589" y="800"/>
      <point x="589" y="810"/>
      <point x="586" y="752" type="curve" smooth="yes"/>
      <point x="566" y="439"/>
      <point x="499" y="266"/>
    </contour>
  </outline>
</glyph>
<glyph name="afii10072" format="1">
  <advance width="1617"/>
  <unicode hex="0436"/>
  <outline>
    <contour>
      <point x="670" y="637" type="line"/>
      <point x="670" y="1098" type="line"/>
      <point x="955" y="1098" type="line"/>
      <point x="955" y="637" type="line"/>
      <point x="1209" y="1098" type="line"/>
      <point x="1572" y="1098" type="line"/>
      <point x="1206" y="547" type="line"/>
      <point x="1595" y="0" type="line"/>
      <point x="1250" y="0" type="line"/>
      <point x="955" y="459" type="line"/>
      <point x="955" y="0" type="line"/>
      <point x="670" y="0" type="line"/>
      <point x="670" y="459" type="line"/>
      <point x="375" y="0" type="line"/>
      <point x="30" y="0" type="line"/>
      <point x="420" y="547" type="line"/>
      <point x="54" y="1098" type="line"/>
      <point x="417" y="1098" type="line"/>
    </contour>
  </outline>
</glyph>
<glyph name="afii10073" format="1">
  <advance width="1027"/>
  <unicode hex="0437"/>
  <outline>
    <contour>
      <point x="513" y="1098" type="move" name="top"/>
    </contour>
    <contour>
      <point x="513" y="0" type="move" name="bottom"/>
    </contour>
    <contour>
      <point x="506" y="-19" type="curve" smooth="yes"/>
      <point x="307" y="-19"/>
      <point x="174" y="26"/>
      <point x="81" y="86" type="curve"/>
      <point x="76" y="76"/>
      <point x="121" y="297"/>
      <point x="117" y="287" type="curve"/>
      <point x="200" y="239"/>
      <point x="345" y="202"/>
      <point x="511" y="202" type="curve" smooth="yes"/>
      <point x="661" y="202"/>
      <point x="712" y="243"/>
      <point x="712" y="333" type="curve" smooth="yes"/>
      <point x="712" y="401"/>
      <point x="638" y="435"/>
      <point x="534" y="435" type="curve" smooth="yes"/>
      <point x="294" y="435" type="line"/>
      <point x="294" y="642" type="line"/>
      <point x="535" y="642" type="line" smooth="yes"/>
      <point x="632" y="642"/>
      <point x="684" y="684"/>
      <point x="684" y="750" type="curve" smooth="yes"/>
      <point x="684" y="837"/>
      <point x="614" y="866"/>
      <point x="476" y="866" type="curve" smooth="yes"/>
      <point x="302" y="866"/>
      <point x="194" y="848"/>
      <point x="119" y="808" type="curve"/>
      <point x="119" y="808"/>
      <point x="67" y="1016"/>
      <point x="70" y="1008" type="curve"/>
      <point x="163" y="1059"/>
      <point x="335" y="1075"/>
      <point x="477" y="1075" type="curve" smooth="yes"/>
      <point x="708" y="1075"/>
      <point x="949" y="1011"/>
      <point x="949" y="793" type="curve" smooth="yes"/>
      <point x="949" y="683"/>
      <point x="883" y="584"/>
      <point x="794" y="558" type="curve"/>
      <point x="880" y="526"/>
      <point x="975" y="418"/>
      <point x="974" y="301" type="curve" smooth="yes"/>
      <point x="974" y="38"/>
      <point x="737" y="-19"/>
    </contour>
  </outline>
</glyph>
<glyph name="afii10074" format="1">
  <advance width="1223"/>
  <unicode hex="0438"/>
  <outline>
    <contour>
      <point x="612" y="1098" type="move" name="top"/>
    </contour>
    <contour>
      <point x="1130" y="0" type="line"/>
      <point x="852" y="0" type="line"/>
      <point x="852" y="581" type="line"/>
      <point x="365" y="0" type="line"/>
      <point x="102" y="0" type="line"/>
      <point x="102" y="1098" type="line"/>
      <point x="386" y="1098" type="line"/>
      <point x="386" y="425" type="line"/>
      <point x="852" y="977" type="line"/>
      <point x="852" y="1098" type="line"/>
      <point x="1130" y="1098" type="line"/>
    </contour>
  </outline>
</glyph>
<glyph name="afii10077" format="1">
  <advance width="1261"/>
  <unicode hex="043B"/>
  <outline>
    <contour>
      <point x="160" y="1098" type="line"/>
      <point x="1162" y="1098" type="line"/>
      <point x="1162" y="1" type="line"/>
      <point x="854" y="1" type="line"/>
      <point x="854" y="863" type="line"/>
      <point x="469" y="863" type="line"/>
      <point x="469" y="368" type="line" smooth="yes"/>
      <point x="469" y="102"/>
      <point x="246" y="-16"/>
      <point x="-10" y="-29" type="curve" smooth="yes"/>
      <point x="-26" y="-30"/>
      <point x="-34" y="-30"/>
      <point x="-51" y="-30" type="curve"/>
      <point x="-48" y="205" type="line"/>
      <point x="-25" y="211" type="line"/>
      <point x="135" y="233"/>
      <point x="160" y="257"/>
      <point x="160" y="418" type="curve" smooth="yes"/>
    </contour>
  </outline>
</glyph>
<glyph name="afii10078" format="1">
  <advance width="1371"/>
  <unicode hex="043C"/>
  <outline>
    <contour>
      <point x="743" y="324" type="line"/>
      <point x="633" y="324" type="line"/>
      <point x="386" y="663" type="line"/>
      <point x="386" y="0" type="line"/>
      <point x="102" y="0" type="line"/>
      <point x="102" y="1098" type="line"/>
      <point x="388" y="1098" type="line"/>
      <point x="691" y="664" type="line"/>
      <point x="994" y="1098" type="line"/>
      <point x="1278" y="1098" type="line"/>
      <point x="1278" y="0" type="line"/>
      <point x="1000" y="0" type="line"/>
      <point x="1000" y="664" type="line"/>
    </contour>
  </outline>
</glyph>
<glyph name="afii10088" format="1">
  <advance width="1270"/>
  <unicode hex="0446"/>
  <outline>
    <contour>
      <point x="962" y="0" type="line"/>
      <point x="99" y="0" type="line"/>
      <point x="99" y="1098" type="line"/>
      <point x="407" y="1098" type="line"/>
      <point x="407" y="233" type="line"/>
      <point x="802" y="233" type="line"/>
      <point x="802" y="1098" type="line"/>
      <point x="1111" y="1098" type="line"/>
      <point x="1111" y="87" type="line"/>
      <point x="1249" y="87" type="line"/>
      <point x="1249" y="-383" type="line"/>
      <point x="987" y="-383" type="line"/>
    </contour>
  </outline>
</glyph>
<glyph name="afii10091" format="1">
  <advance width="1646"/>
  <unicode hex="0449"/>
  <outline>
    <contour>
      <point x="1358" y="-390" type="line"/>
      <point x="1331" y="0" type="line"/>
      <point x="102" y="0" type="line"/>
      <point x="102" y="1098" type="line"/>
      <point x="386" y="1098" type="line"/>
      <point x="386" y="233" type="line"/>
      <point x="653" y="233" type="line"/>
      <point x="653" y="1098" type="line"/>
      <point x="937" y="1098" type="line"/>
      <point x="937" y="233" type="line"/>
      <point x="1205" y="233" type="line"/>
      <point x="1205" y="1098" type="line"/>
      <point x="1483" y="1098" type="line"/>
      <point x="1483" y="88" type="line"/>
      <point x="1620" y="88" type="line"/>
      <point x="1620" y="-390" type="line"/>
    </contour>
  </outline>
</glyph>
<glyph name="afii10092" format="1">
  <advance width="1213"/>
  <unicode hex="044A"/>
  <outline>
    <contour>
      <point x="505" y="1098" type="line"/>
      <point x="505" y="718" type="line"/>
      <point x="753" y="718" type="line" smooth="yes"/>
      <point x="936" y="718"/>
      <point x="1154" y="626"/>
      <point x="1154" y="365" type="curve" smooth="yes"/>
      <point x="1154" y="129"/>
      <point x="980" y="0"/>
      <point x="770" y="0" type="curve" smooth="yes"/>
      <point x="197" y="0" type="line"/>
      <point x="197" y="877" type="line"/>
      <point x="-10" y="877" type="line"/>
      <point x="-10" y="1098" type="line"/>
    </contour>
    <contour>
      <point x="727" y="509" type="curve" smooth="yes"/>
      <point x="506" y="509" type="line"/>
      <point x="506" y="216" type="line"/>
      <point x="733" y="216" type="line" smooth="yes"/>
      <point x="822" y="216"/>
      <point x="881" y="284"/>
      <point x="881" y="368" type="curve" smooth="yes"/>
      <point x="881" y="442"/>
      <point x="829" y="509"/>
    </contour>
  </outline>
</glyph>
<glyph name="afii10094" format="1">
  <advance width="1126"/>
  <unicode hex="044C"/>
  <outline>
    <contour>
      <point x="409" y="1099" type="line"/>
      <point x="102" y="1098" type="line"/>
      <point x="102" y="0" type="line"/>
      <point x="690" y="0" type="line" smooth="yes"/>
      <point x="899" y="0"/>
      <point x="1074" y="127"/>
      <point x="1074" y="357" type="curve" smooth="yes"/>
      <point x="1074" y="610"/>
      <point x="854" y="700"/>
      <point x="672" y="700" type="curve" smooth="yes"/>
      <point x="409" y="700" type="line"/>
    </contour>
    <contour>
      <point x="646" y="491" type="line"/>
      <point x="748" y="491"/>
      <point x="801" y="428"/>
      <point x="801" y="359" type="curve" smooth="yes"/>
      <point x="801" y="279"/>
      <point x="741" y="216"/>
      <point x="651" y="216" type="curve" smooth="yes"/>
      <point x="410" y="216" type="line"/>
      <point x="410" y="491" type="line"/>
    </contour>
  </outline>
</glyph>
<glyph name="afii10097" format="1">
  <advance width="1187"/>
  <unicode hex="044F"/>
  <outline>
    <contour>
      <point x="784" y="0" type="line"/>
      <point x="784" y="440" type="line"/>
      <point x="645" y="440" type="line"/>
      <point x="424" y="0" type="line"/>
      <point x="85" y="0" type="line"/>
      <point x="342" y="475" type="line"/>
      <point x="222" y="523"/>
      <point x="109" y="611"/>
      <point x="109" y="768" type="curve" smooth="yes"/>
      <point x="109" y="997"/>
      <point x="300" y="1098"/>
      <point x="508" y="1098" type="curve" smooth="yes"/>
      <point x="1093" y="1098" type="line"/>
      <point x="1093" y="0" type="line"/>
    </contour>
    <contour>
      <point x="555" y="658" type="curve" smooth="yes"/>
      <point x="784" y="658" type="line"/>
      <point x="784" y="870" type="line"/>
      <point x="555" y="870" type="line" smooth="yes"/>
      <point x="452" y="870"/>
      <point x="412" y="831"/>
      <point x="418" y="762" type="curve" smooth="yes"/>
      <point x="424" y="694"/>
      <point x="456" y="658"/>
    </contour>
  </outline>
</glyph>
<glyph name="afii10107" format="1">
  <advance width="1729"/>
  <unicode hex="045A"/>
  <outline>
    <contour>
      <point x="102" y="1098" type="line"/>
      <point x="410" y="1098" type="line"/>
      <point x="410" y="703" type="line"/>
      <point x="807" y="703" type="line"/>
      <point x="807" y="1098" type="line"/>
      <point x="1115" y="1098" type="line"/>
      <point x="1115" y="685" type="line"/>
      <point x="1321" y="685" type="line" smooth="yes"/>
      <point x="1525" y="685"/>
      <point x="1700" y="611"/>
      <point x="1700" y="348" type="curve"/>
      <point x="1700" y="132"/>
      <point x="1514" y="0"/>
      <point x="1314" y="0" type="curve" smooth="yes"/>
      <point x="807" y="0" type="line"/>
      <point x="807" y="474" type="line"/>
      <point x="410" y="474" type="line"/>
      <point x="410" y="0" type="line"/>
      <point x="102" y="0" type="line"/>
    </contour>
    <contour>
      <point x="1115" y="476" type="line"/>
      <point x="1115" y="223" type="line"/>
      <point x="1281" y="223" type="line" smooth="yes"/>
      <point x="1382" y="223"/>
      <point x="1450" y="267"/>
      <point x="1450" y="354" type="curve" smooth="yes"/>
      <point x="1450" y="433"/>
      <point x="1382" y="476"/>
      <point x="1283" y="476" type="curve" smooth="yes"/>
    </contour>
  </outline>
</glyph>
<glyph name="afii10108" format="1">
  <advance width="1113"/>
  <unicode hex="045B"/>
  <outline>
    <contour>
      <point x="283" y="495" type="curve"/>
      <point x="283" y="0" type="line"/>
      <point x="115" y="0" type="line"/>
      <point x="115" y="1099" type="line"/>
      <point x="21" y="1099" type="line"/>
      <point x="21" y="1215" type="line"/>
      <point x="115" y="1215" type="line"/>
      <point x="115" y="1510" type="line"/>
      <point x="283" y="1510" type="line"/>
      <point x="283" y="1215" type="line"/>
      <point x="698" y="1215" type="line"/>
      <point x="698" y="1099" type="line"/>
      <point x="283" y="1099" type="line"/>
      <point x="283" y="713" type="line"/>
      <point x="371" y="824"/>
      <point x="486" y="892"/>
      <point x="636" y="892" type="curve" smooth="yes"/>
      <point x="893" y="892"/>
      <point x="1008" y="733"/>
      <point x="1008" y="445" type="curve" smooth="yes"/>
      <point x="1008" y="0" type="line"/>
      <point x="840" y="0" type="line"/>
      <point x="840" y="368" type="line" smooth="yes"/>
      <point x="840" y="616"/>
      <point x="807" y="739"/>
      <point x="620" y="739" type="curve" smooth="yes"/>
      <point x="449" y="739"/>
      <point x="310" y="599"/>
    </contour>
  </outline>
</glyph>
<glyph name="afii10193" format="1">
  <advance width="1196"/>
  <unicode hex="045F"/>
  <outline>
    <contour>
      <point x="465" y="0" type="line"/>
      <point x="102" y="0" type="line"/>
      <point x="102" y="1098" type="line"/>
      <point x="410" y="1098" type="line"/>
      <point x="410" y="233" type="line"/>
      <point x="802" y="233" type="line"/>
      <point x="802" y="1098" type="line"/>
      <point x="1111" y="1098" type="line"/>
      <point x="1111" y="0" type="line"/>
      <point x="759" y="0" type="line"/>
      <point x="743" y="-381" type="line"/>
      <point x="481" y="-381" type="line"/>
    </contour>
  </outline>
</glyph>
<glyph name="quoteleft" format="1">
  <advance width="400"/>
  <unicode hex="2018"/>
  <outline>
    <contour>
      <point x="217" y="957" type="line"/>
      <point x="-16" y="1463" type="line"/>
      <point x="248" y="1463" type="line"/>
      <point x="407" y="957" type="line"/>
    </contour>
  </outline>
</glyph>
<glyph name="quotedblright" format="1">
  <advance width="1052"/>
  <unicode hex="201D"/>
  <outline>
    <contour>
      <point x="203" y="957" type="line"/>
      <point x="320" y="1463" type="line"/>
      <point x="562" y="1463" type="line"/>
      <point x="406" y="957" type="line"/>
    </contour>
    <contour>
      <point x="512" y="957" type="line"/>
      <point x="616" y="1463" type="line"/>
      <point x="871" y="1463" type="line"/>
      <point x="697" y="957" type="line"/>
    </contour>
  </outline>
</glyph>
<glyph name="quotedblbase" format="1">
  <advance width="1122"/>
  <unicode hex="201E"/>
  <outline>
    <contour>
      <point x="179" y="-295" type="line"/>
      <point x="302" y="210" type="line"/>
      <point x="577" y="210" type="line"/>
      <point x="386" y="-295" type="line"/>
    </contour>
    <contour>
      <point x="556" y="-295" type="line"/>
      <point x="691" y="210" type="line"/>
      <point x="955" y="210" type="line"/>
      <point x="775" y="-295" type="line"/>
    </contour>
  </outline>
</glyph>
<glyph name="dagger" format="1">
  <advance width="1043"/>
  <unicode hex="2020"/>
  <outline>
    <contour>
      <point x="393" y="111" type="line"/>
      <point x="393" y="921" type="line"/>
      <point x="65" y="921" type="line"/>
      <point x="65" y="1133" type="line"/>
      <point x="393" y="1133" type="line"/>
      <point x="393" y="1439" type="line"/>
      <point x="635" y="1439" type="line"/>
      <point x="635" y="1133" type="line"/>
      <point x="984" y="1133" type="line"/>
      <point x="984" y="921" type="line"/>
      <point x="618" y="921" type="line"/>
      <point x="618" y="111" type="line"/>
    </contour>
  </outline>
</glyph>
<glyph name="bullet" format="1">
  <advance width="1076"/>
  <unicode hex="2022"/>
  <outline>
    <contour>
      <point x="934" y="665" type="curve" smooth="yes"/>
      <point x="934" y="463"/>
      <point x="771" y="317"/>
      <point x="537" y="317" type="curve" smooth="yes"/>
      <point x="306" y="317"/>
      <point x="147" y="458"/>
      <point x="147" y="658" type="curve" smooth="yes"/>
      <point x="147" y="858"/>
      <point x="311" y="1005"/>
      <point x="545" y="1005" type="curve" smooth="yes"/>
      <point x="775" y="1005"/>
      <point x="934" y="864"/>
    </contour>
  </outline>
</glyph>
<glyph name="guilsinglleft" format="1">
  <advance width="561"/>
  <unicode hex="2039"/>
  <outline>
    <contour>
      <point x="305" y="954" type="line"/>
      <point x="546" y="954" type="line"/>
      <point x="267" y="559" type="line"/>
      <point x="539" y="169" type="line"/>
      <point x="299" y="169" type="line"/>
      <point x="14" y="559" type="line"/>
    </contour>
  </outline>
</glyph>
<glyph name="uni2074" format="1">
  <advance width="937"/>
  <unicode hex="2074"/>
  <outline>
    <contour>
      <point x="498" y="605" type="line"/>
      <point x="309" y="605" type="line"/>
      <point x="309" y="759" type="line"/>
      <point x="-56" y="759" type="line"/>
      <point x="-56" y="891" type="line"/>
      <point x="92" y="1103"/>
      <point x="166" y="1190"/>
      <point x="314" y="1400" type="curve"/>
      <point x="500" y="1400" type="line"/>
      <point x="500" y="938" type="line"/>
      <point x="608" y="938" type="line"/>
      <point x="624" y="759" type="line"/>
      <point x="499" y="759" type="line"/>
    </contour>
    <contour>
      <point x="193" y="938" type="line"/>
      <point x="307" y="938" type="line"/>
      <point x="307" y="938"/>
      <point x="307" y="1114"/>
      <point x="307" y="1108" type="curve"/>
    </contour>
  </outline>
</glyph>
<glyph name="trademark" format="1">
  <advance width="1828"/>
  <unicode hex="2122"/>
  <outline>
    <contour>
      <point x="771" y="1453" type="line"/>
      <point x="1024" y="1453" type="line"/>
      <point x="1210" y="985" type="line"/>
      <point x="1405" y="1453" type="line"/>
      <point x="1637" y="1453" type="line"/>
      <point x="1637" y="703" type="line"/>
      <point x="1447" y="703" type="line"/>
      <point x="1447" y="1131" type="line"/>
      <point x="1261" y="687" type="line"/>
      <point x="1145" y="687" type="line"/>
      <point x="969" y="1122" type="line"/>
      <point x="969" y="703" type="line"/>
      <point x="771" y="703" type="line"/>
    </contour>
    <contour>
      <point x="57" y="1453" type="line"/>
      <point x="739" y="1453" type="line"/>
      <point x="739" y="1279" type="line"/>
      <point x="505" y="1279" type="line"/>
      <point x="505" y="703" type="line"/>
      <point x="305" y="703" type="line"/>
      <point x="305" y="1279" type="line"/>
      <point x="58" y="1279" type="line"/>
    </contour>
  </outline>
</glyph>
<glyph name="summation" format="1">
  <advance width="1258"/>
  <unicode hex="2211"/>
  <outline>
    <contour>
      <point x="1237" y="-105" type="line"/>
      <point x="1237" y="-323" type="line"/>
      <point x="45" y="-323" type="line"/>
      <point x="45" y="-190" type="line"/>
      <point x="652" y="548" type="line"/>
      <point x="66" y="1272" type="line"/>
      <point x="66" y="1411" type="line"/>
      <point x="1192" y="1411" type="line"/>
      <point x="1192" y="1198" type="line"/>
      <point x="422" y="1198" type="line"/>
      <point x="926" y="556" type="line"/>
      <point x="392" y="-105" type="line"/>
    </contour>
  </outline>
</glyph>
<glyph name="minus" format="1">
  <advance width="1496"/>
  <unicode hex="2212"/>
  <outline>
    <contour>
      <point x="200" y="634" type="line"/>
      <point x="1295" y="634" type="line"/>
      <point x="1295" y="426" type="line"/>
      <point x="200" y="426" type="line"/>
    </contour>
  </outline>
</glyph>
<glyph name="approxequal" format="1">
  <advance width="1310"/>
  <unicode hex="2248"/>
  <outline>
    <contour>
      <point x="213" y="-11" type="line"/>
      <point x="255" y="56"/>
      <point x="319" y="127"/>
      <point x="412" y="127" type="curve" smooth="yes"/>
      <point x="494" y="127"/>
      <point x="547" y="107"/>
      <point x="613" y="78" type="curve" smooth="yes"/>
      <point x="710" y="38"/>
      <point x="780" y="8"/>
      <point x="886" y="8" type="curve" smooth="yes"/>
      <point x="1029" y="8"/>
      <point x="1180" y="110"/>
      <point x="1238" y="183" type="curve"/>
      <point x="1167" y="357" type="line"/>
      <point x="1058" y="265"/>
      <point x="990" y="239"/>
      <point x="911" y="239" type="curve" smooth="yes"/>
      <point x="849" y="239"/>
      <point x="786" y="254"/>
      <point x="697" y="291" type="curve" smooth="yes"/>
      <point x="613" y="324"/>
      <point x="513" y="351"/>
      <point x="424" y="351" type="curve" smooth="yes"/>
      <point x="270" y="351"/>
      <point x="191" y="265"/>
      <point x="132" y="176" type="curve"/>
    </contour>
    <contour>
      <point x="213" y="410" type="line"/>
      <point x="256" y="477"/>
      <point x="319" y="548"/>
      <point x="413" y="548" type="curve" smooth="yes"/>
      <point x="495" y="548"/>
      <point x="547" y="528"/>
      <point x="613" y="500" type="curve" smooth="yes"/>
      <point x="711" y="460"/>
      <point x="782" y="430"/>
      <point x="887" y="430" type="curve" smooth="yes"/>
      <point x="1030" y="430"/>
      <point x="1181" y="532"/>
      <point x="1238" y="605" type="curve"/>
      <point x="1167" y="779" type="line"/>
      <point x="1059" y="687"/>
      <point x="990" y="661"/>
      <point x="912" y="661" type="curve" smooth="yes"/>
      <point x="849" y="661"/>
      <point x="782" y="681"/>
      <point x="696" y="715" type="curve" smooth="yes"/>
      <point x="616" y="745"/>
      <point x="514" y="773"/>
      <point x="425" y="773" type="curve" smooth="yes"/>
      <point x="270" y="773"/>
      <point x="191" y="688"/>
      <point x="132" y="598" type="curve"/>
    </contour>
  </outline>
</glyph>
<glyph name="notequal" format="1">
  <advance width="1390"/>
  <unicode hex="2260"/>
  <outline>
    <contour>
      <point x="865" y="1118" type="line"/>
      <point x="865" y="1118"/>
      <point x="1058" y="1092"/>
      <point x="1061" y="1092" type="curve"/>
      <point x="940" y="876" type="line"/>
      <point x="1223" y="876" type="line"/>
      <point x="1241" y="684" type="line"/>
      <point x="848" y="684" type="line"/>
      <point x="745" y="479" type="line"/>
      <point x="1224" y="479" type="line"/>
      <point x="1241" y="287" type="line"/>
      <point x="652" y="287" type="line"/>
      <point x="517" y="42" type="line"/>
      <point x="322" y="68" type="line"/>
      <point x="446" y="288" type="line"/>
      <point x="175" y="288" type="line"/>
      <point x="163" y="480" type="line"/>
      <point x="539" y="480" type="line"/>
      <point x="641" y="685" type="line"/>
      <point x="175" y="685" type="line"/>
      <point x="161" y="877" type="line"/>
      <point x="730" y="877" type="line"/>
    </contour>
  </outline>
</glyph>
<glyph name="lessequal" format="1">
  <advance width="1250"/>
  <unicode hex="2264"/>
  <outline>
    <contour>
      <point x="1108" y="434" type="line"/>
      <point x="1108" y="220" type="line"/>
      <point x="154" y="666" type="line"/>
      <point x="154" y="797" type="line"/>
      <point x="1108" y="1248" type="line"/>
      <point x="1108" y="1034" type="line"/>
      <point x="448" y="731" type="line"/>
    </contour>
    <contour>
      <point x="1103" y="168" type="line"/>
      <point x="1103" y="-2" type="line"/>
      <point x="161" y="-2" type="line"/>
      <point x="161" y="167" type="line"/>
    </contour>
  </outline>
</glyph>
<glyph name="greaterequal" format="1">
  <advance width="1250"/>
  <unicode hex="2265"/>
  <outline>
    <contour>
      <point x="1103" y="167" type="line"/>
      <point x="1103" y="-2" type="line"/>
      <point x="160" y="-2" type="line"/>
      <point x="160" y="168" type="line"/>
    </contour>
    <contour>
      <point x="154" y="1033" type="line"/>
      <point x="154" y="1248" type="line"/>
      <point x="1107" y="797" type="line"/>
      <point x="1107" y="665" type="line"/>
      <point x="155" y="219" type="line"/>
      <point x="155" y="434" type="line"/>
      <point x="813" y="731" type="line"/>
    </contour>
  </outline>
</glyph>
<glyph name="uniFB01" format="1">
  <advance width="1243"/>
  <unicode hex="FB01"/>
  <outline>
    <contour>
      <point x="185" y="0" type="line"/>
      <point x="185" y="918" type="line"/>
      <point x="4" y="918" type="line"/>
      <point x="4" y="1098" type="line"/>
      <point x="185" y="1098" type="line"/>
      <point x="185" y="1095"/>
      <point x="185" y="1130"/>
      <point x="185" y="1127" type="curve" smooth="yes"/>
      <point x="183" y="1376"/>
      <point x="205" y="1548"/>
      <point x="601" y="1548" type="curve" smooth="yes"/>
      <point x="666" y="1548" type="line"/>
      <point x="688" y="1320" type="line"/>
      <point x="633" y="1320" type="line" smooth="yes"/>
      <point x="513" y="1320"/>
      <point x="493" y="1279"/>
      <point x="493" y="1185" type="curve" smooth="yes"/>
      <point x="493" y="1188"/>
      <point x="493" y="1095"/>
      <point x="493" y="1098" type="curve"/>
      <point x="1131" y="1098" type="line"/>
      <point x="1131" y="0" type="line"/>
      <point x="822" y="0" type="line"/>
      <point x="822" y="918" type="line"/>
      <point x="493" y="918" type="line"/>
      <point x="493" y="0" type="line"/>
    </contour>
    <contour>
      <point x="822" y="1474" type="line"/>
      <point x="1132" y="1474" type="line"/>
      <point x="1132" y="1234" type="line"/>
      <point x="822" y="1234" type="line"/>
    </contour>
  </outline>
</glyph>
<glyph name="uniFB02" format="1">
  <advance width="1495"/>
  <unicode hex="FB02"/>
  <outline>
    <contour>
      <point x="1322" y="-13" type="curve" smooth="yes"/>
      <point x="985" y="-13"/>
      <point x="924" y="196"/>
      <point x="924" y="449" type="curve" smooth="yes"/>
      <point x="924" y="1312" type="line"/>
      <point x="971" y="1309"/>
      <point x="843" y="1332"/>
      <point x="709" y="1332" type="curve" smooth="yes"/>
      <point x="523" y="1332"/>
      <point x="492" y="1285"/>
      <point x="493" y="1185" type="curve" smooth="yes"/>
      <point x="493" y="1188"/>
      <point x="493" y="1095"/>
      <point x="493" y="1098" type="curve"/>
      <point x="723" y="1098" type="line"/>
      <point x="723" y="918" type="line"/>
      <point x="493" y="918" type="line"/>
      <point x="493" y="0" type="line"/>
      <point x="185" y="0" type="line"/>
      <point x="185" y="918" type="line"/>
      <point x="4" y="918" type="line"/>
      <point x="4" y="1098" type="line"/>
      <point x="185" y="1098" type="line"/>
      <point x="185" y="1096"/>
      <point x="185" y="1156"/>
      <point x="185" y="1154" type="curve" smooth="yes"/>
      <point x="183" y="1410"/>
      <point x="297" y="1557"/>
      <point x="645" y="1557" type="curve" smooth="yes"/>
      <point x="922" y="1557"/>
      <point x="1318" y="1495"/>
      <point x="1233" y="1500" type="curve"/>
      <point x="1233" y="407" type="line" smooth="yes"/>
      <point x="1233" y="262"/>
      <point x="1252" y="214"/>
      <point x="1408" y="214" type="curve" smooth="yes"/>
      <point x="1467" y="214"/>
      <point x="1478" y="218"/>
      <point x="1466" y="218" type="curve"/>
      <point x="1479" y="1" type="line"/>
      <point x="1501" y="3"/>
      <point x="1434" y="-13"/>
    </contour>
  </outline>
</glyph>
